<svg width="1292" height="1041" viewBox="0 0 1292 1041" fill="none" xmlns="http://www.w3.org/2000/svg">
<g filter="url(#filter0_d_128_481)">
<path d="M823.75 780.75C967.482 637.018 967.482 403.982 823.75 260.25C680.018 116.518 446.982 116.518 303.25 260.25C159.518 403.982 159.518 637.018 303.25 780.75C446.982 924.482 680.018 924.482 823.75 780.75Z" fill="#121425" fill-opacity="0.6"/>
<path d="M823.043 260.957C966.385 404.299 966.384 636.701 823.043 780.043C679.701 923.385 447.299 923.384 303.957 780.043C160.616 636.701 160.616 404.299 303.957 260.957C447.299 117.616 679.701 117.616 823.043 260.957Z" stroke="white" stroke-opacity="0.1" stroke-width="2"/>
</g>
<path d="M835.324 671.851C868.589 611.962 881.079 542.742 870.843 475.004L564.323 521.323L835.324 671.851Z" fill="#243192"/>
<path d="M687.545 805.781C750.408 778.55 802.479 731.263 835.624 671.308L564.323 521.323L687.545 805.781Z" fill="#A78DF5"/>
<path d="M527.092 829.079C581.746 835.691 637.176 827.629 687.682 805.721L564.323 521.323L527.092 829.079Z" fill="#F58DE4"/>
<path d="M346.903 742.294C395.735 790.342 459.108 820.861 527.12 829.083L564.323 521.323L346.903 742.294Z" fill="#ED7789"/>
<path d="M737.126 263.954C686.206 229.765 626.289 211.449 564.957 211.324C503.624 211.198 443.633 229.269 392.574 263.249L564.322 521.323L737.126 263.954Z" fill="#76FF9C"/>
<path d="M399.843 258.556C363.521 281.293 332.306 311.313 308.171 346.721C284.035 382.129 267.503 422.157 259.617 464.277C251.731 506.397 252.664 549.695 262.356 591.436C272.048 633.178 290.288 672.456 315.926 706.793L564.323 521.323L399.843 258.556Z" fill="#F5DC87"/>
<path d="M314.745 705.201C324.549 718.508 335.402 731.01 347.199 742.586L564.323 521.323L314.745 705.201Z" fill="#DB9A6E"/>
<path d="M870.959 475.783C864.603 432.981 849.356 391.984 826.2 355.43C803.044 318.876 772.491 287.575 736.509 263.541L564.323 521.323L870.959 475.783Z" fill="#FFA723"/>
<g filter="url(#filter1_d_128_481)">
<path d="M717.981 546.365C732.11 461.203 674.527 380.712 589.365 366.583C504.203 352.454 423.712 410.037 409.583 495.199C395.454 580.361 453.037 660.852 538.199 674.981C623.361 689.11 703.852 631.527 717.981 546.365Z" fill="#11121D"/>
</g>
<path d="M567 273V135H297" stroke="white" stroke-width="4" stroke-linejoin="round"/>
<path d="M802 384V287H1048" stroke="white" stroke-width="4" stroke-linejoin="round"/>
<path d="M601 754V919H847" stroke="white" stroke-width="4" stroke-linejoin="round"/>
<path d="M454 739V904H208" stroke="white" stroke-width="4" stroke-linejoin="round"/>
<circle cx="568" cy="273" r="11" fill="white"/>
<circle cx="802" cy="384" r="11" fill="white"/>
<circle cx="11" cy="11" r="11" transform="matrix(1 0 0 -1 590 765)" fill="white"/>
<circle cx="454" cy="739" r="11" transform="rotate(180 454 739)" fill="white"/>
<circle cx="359" cy="701" r="11" fill="white"/>
<circle cx="828" cy="547" r="11" fill="white"/>
<circle cx="719" cy="712" r="11" fill="white"/>
<path d="M296.072 69V63.944C296.072 60.8293 296.605 58.2693 297.672 56.264C298.739 54.2587 300.253 52.6373 302.216 51.4C304.221 50.12 306.632 49.0533 309.448 48.2L313.352 46.984C315.101 46.4293 316.595 45.7467 317.832 44.936C319.112 44.1253 320.093 43.1227 320.776 41.928C321.459 40.6907 321.8 39.2613 321.8 37.64V37.384C321.8 34.8667 320.947 32.904 319.24 31.496C317.533 30.0453 315.293 29.32 312.52 29.32C309.661 29.32 307.336 30.088 305.544 31.624C303.795 33.16 302.92 35.4213 302.92 38.408V39.432H296.264V38.472C296.264 35.2293 296.968 32.4987 298.376 30.28C299.784 28.0187 301.725 26.2907 304.2 25.096C306.675 23.9013 309.448 23.304 312.52 23.304C315.592 23.304 318.323 23.88 320.712 25.032C323.144 26.184 325.043 27.8053 326.408 29.896C327.816 31.9867 328.52 34.44 328.52 37.256V37.832C328.52 40.7333 327.944 43.144 326.792 45.064C325.64 46.984 324.04 48.5627 321.992 49.8C319.987 51.0373 317.661 52.0827 315.016 52.936L311.24 54.088C309.235 54.6853 307.613 55.3467 306.376 56.072C305.181 56.7547 304.285 57.5867 303.688 58.568C303.133 59.5493 302.856 60.808 302.856 62.344V62.984H328.136V69H296.072ZM351.858 69.896C346.653 69.896 342.493 68.424 339.378 65.48C336.306 62.4933 334.77 58.0133 334.77 52.04V41.16C334.77 35.3147 336.306 30.8773 339.378 27.848C342.493 24.8187 346.653 23.304 351.858 23.304C357.106 23.304 361.266 24.8187 364.338 27.848C367.453 30.8773 369.01 35.3147 369.01 41.16V52.04C369.01 58.0133 367.453 62.4933 364.338 65.48C361.266 68.424 357.106 69.896 351.858 69.896ZM351.858 63.88C355.399 63.88 358.023 62.8773 359.73 60.872C361.437 58.824 362.29 55.9653 362.29 52.296V40.776C362.29 37.1067 361.373 34.2907 359.538 32.328C357.703 30.3227 355.143 29.32 351.858 29.32C348.53 29.32 345.97 30.344 344.178 32.392C342.386 34.3973 341.49 37.192 341.49 40.776V52.296C341.49 56.0507 342.343 58.9307 344.05 60.936C345.799 62.8987 348.402 63.88 351.858 63.88ZM381.524 69.832L377.428 66.504L412.436 23.368L416.532 26.696L381.524 69.832ZM409.236 69.704C406.079 69.704 403.583 68.8293 401.748 67.08C399.913 65.288 398.996 62.8773 398.996 59.848V59.464C398.996 56.392 399.913 53.9813 401.748 52.232C403.583 50.44 406.079 49.544 409.236 49.544C412.351 49.544 414.847 50.44 416.724 52.232C418.601 53.9813 419.54 56.392 419.54 59.464V59.848C419.54 62.8773 418.601 65.288 416.724 67.08C414.889 68.8293 412.393 69.704 409.236 69.704ZM409.236 65.224C410.772 65.224 411.967 64.7547 412.82 63.816C413.716 62.8773 414.164 61.64 414.164 60.104V59.208C414.164 57.6293 413.716 56.3707 412.82 55.432C411.967 54.4933 410.772 54.024 409.236 54.024C407.743 54.024 406.548 54.4933 405.652 55.432C404.799 56.3707 404.372 57.6293 404.372 59.208V60.104C404.372 61.64 404.799 62.8773 405.652 63.816C406.548 64.7547 407.743 65.224 409.236 65.224ZM384.724 43.656C381.567 43.656 379.049 42.7813 377.172 41.032C375.337 39.24 374.42 36.8293 374.42 33.8V33.352C374.42 30.28 375.337 27.8693 377.172 26.12C379.049 24.3707 381.567 23.496 384.724 23.496C387.839 23.496 390.313 24.3707 392.148 26.12C394.025 27.8693 394.964 30.28 394.964 33.352V33.8C394.964 36.8293 394.047 39.24 392.212 41.032C390.377 42.7813 387.881 43.656 384.724 43.656ZM384.724 39.176C386.217 39.176 387.391 38.7067 388.244 37.768C389.14 36.7867 389.588 35.528 389.588 33.992V33.096C389.588 31.56 389.14 30.3227 388.244 29.384C387.391 28.4453 386.217 27.976 384.724 27.976C383.188 27.976 381.972 28.4453 381.076 29.384C380.223 30.3227 379.796 31.56 379.796 33.096V33.992C379.796 35.528 380.223 36.7867 381.076 37.768C381.972 38.7067 383.188 39.176 384.724 39.176Z" fill="url(#paint0_linear_128_481)"/>
<path d="M294.752 114V97.2H301.808C302.848 97.2 303.76 97.384 304.544 97.752C305.344 98.104 305.96 98.616 306.392 99.288C306.84 99.96 307.064 100.76 307.064 101.688V101.952C307.064 103.008 306.808 103.856 306.296 104.496C305.8 105.12 305.192 105.56 304.472 105.816V106.2C305.08 106.232 305.568 106.44 305.936 106.824C306.304 107.192 306.488 107.728 306.488 108.432V114H303.872V108.792C303.872 108.36 303.76 108.016 303.536 107.76C303.312 107.504 302.952 107.376 302.456 107.376H297.344V114H294.752ZM297.344 105.024H301.52C302.448 105.024 303.168 104.792 303.68 104.328C304.192 103.848 304.448 103.2 304.448 102.384V102.192C304.448 101.376 304.192 100.736 303.68 100.272C303.184 99.792 302.464 99.552 301.52 99.552H297.344V105.024ZM315.412 114.336C314.212 114.336 313.164 114.088 312.268 113.592C311.372 113.08 310.668 112.368 310.156 111.456C309.66 110.528 309.412 109.456 309.412 108.24V107.952C309.412 106.72 309.66 105.648 310.156 104.736C310.652 103.808 311.34 103.096 312.22 102.6C313.116 102.088 314.148 101.832 315.316 101.832C316.452 101.832 317.444 102.088 318.292 102.6C319.156 103.096 319.828 103.792 320.308 104.688C320.788 105.584 321.028 106.632 321.028 107.832V108.768H311.932C311.964 109.808 312.308 110.64 312.964 111.264C313.636 111.872 314.468 112.176 315.46 112.176C316.388 112.176 317.084 111.968 317.548 111.552C318.028 111.136 318.396 110.656 318.652 110.112L320.692 111.168C320.468 111.616 320.14 112.088 319.708 112.584C319.292 113.08 318.74 113.496 318.052 113.832C317.364 114.168 316.484 114.336 315.412 114.336ZM311.956 106.872H318.508C318.444 105.976 318.124 105.28 317.548 104.784C316.972 104.272 316.22 104.016 315.292 104.016C314.364 104.016 313.604 104.272 313.012 104.784C312.436 105.28 312.084 105.976 311.956 106.872ZM328.852 114.336C327.348 114.336 326.1 114 325.108 113.328C324.116 112.656 323.508 111.64 323.284 110.28L325.588 109.728C325.716 110.384 325.932 110.904 326.236 111.288C326.54 111.672 326.916 111.944 327.364 112.104C327.828 112.264 328.324 112.344 328.852 112.344C329.636 112.344 330.236 112.192 330.652 111.888C331.084 111.584 331.3 111.192 331.3 110.712C331.3 110.232 331.1 109.88 330.7 109.656C330.3 109.432 329.708 109.248 328.924 109.104L328.108 108.96C327.308 108.816 326.58 108.608 325.924 108.336C325.268 108.064 324.748 107.688 324.364 107.208C323.98 106.728 323.788 106.112 323.788 105.36C323.788 104.24 324.204 103.376 325.036 102.768C325.868 102.144 326.972 101.832 328.348 101.832C329.676 101.832 330.764 102.136 331.612 102.744C332.476 103.336 333.036 104.144 333.292 105.168L330.988 105.816C330.844 105.096 330.54 104.592 330.076 104.304C329.612 104 329.036 103.848 328.348 103.848C327.676 103.848 327.148 103.976 326.764 104.232C326.38 104.472 326.188 104.816 326.188 105.264C326.188 105.744 326.372 106.096 326.74 106.32C327.124 106.544 327.636 106.712 328.276 106.824L329.116 106.968C329.964 107.112 330.74 107.312 331.444 107.568C332.148 107.824 332.7 108.192 333.1 108.672C333.516 109.152 333.724 109.792 333.724 110.592C333.724 111.776 333.284 112.696 332.404 113.352C331.524 114.008 330.34 114.336 328.852 114.336ZM342.037 114.336C340.837 114.336 339.789 114.088 338.893 113.592C337.997 113.08 337.293 112.368 336.781 111.456C336.285 110.528 336.037 109.456 336.037 108.24V107.952C336.037 106.72 336.285 105.648 336.781 104.736C337.277 103.808 337.965 103.096 338.845 102.6C339.741 102.088 340.773 101.832 341.941 101.832C343.077 101.832 344.069 102.088 344.917 102.6C345.781 103.096 346.453 103.792 346.933 104.688C347.413 105.584 347.653 106.632 347.653 107.832V108.768H338.557C338.589 109.808 338.933 110.64 339.589 111.264C340.261 111.872 341.093 112.176 342.085 112.176C343.013 112.176 343.709 111.968 344.173 111.552C344.653 111.136 345.021 110.656 345.277 110.112L347.317 111.168C347.093 111.616 346.765 112.088 346.333 112.584C345.917 113.08 345.365 113.496 344.677 113.832C343.989 114.168 343.109 114.336 342.037 114.336ZM338.581 106.872H345.133C345.069 105.976 344.749 105.28 344.173 104.784C343.597 104.272 342.845 104.016 341.917 104.016C340.989 104.016 340.229 104.272 339.637 104.784C339.061 105.28 338.709 105.976 338.581 106.872ZM350.629 114V102.168H353.053V103.56H353.437C353.629 103.064 353.933 102.704 354.349 102.48C354.781 102.24 355.309 102.12 355.933 102.12H357.349V104.352H355.837C355.037 104.352 354.381 104.576 353.869 105.024C353.357 105.456 353.101 106.128 353.101 107.04V114H350.629ZM362.646 114L358.662 102.168H361.278L364.422 112.176H364.806L367.95 102.168H370.566L366.582 114H362.646ZM377.967 114.336C376.767 114.336 375.719 114.088 374.823 113.592C373.927 113.08 373.223 112.368 372.711 111.456C372.215 110.528 371.967 109.456 371.967 108.24V107.952C371.967 106.72 372.215 105.648 372.711 104.736C373.207 103.808 373.895 103.096 374.775 102.6C375.671 102.088 376.703 101.832 377.871 101.832C379.007 101.832 379.999 102.088 380.847 102.6C381.711 103.096 382.383 103.792 382.863 104.688C383.343 105.584 383.583 106.632 383.583 107.832V108.768H374.487C374.519 109.808 374.863 110.64 375.519 111.264C376.191 111.872 377.023 112.176 378.015 112.176C378.943 112.176 379.639 111.968 380.103 111.552C380.583 111.136 380.951 110.656 381.207 110.112L383.247 111.168C383.023 111.616 382.695 112.088 382.263 112.584C381.847 113.08 381.295 113.496 380.607 113.832C379.919 114.168 379.039 114.336 377.967 114.336ZM374.511 106.872H381.063C380.999 105.976 380.679 105.28 380.103 104.784C379.527 104.272 378.775 104.016 377.847 104.016C376.919 104.016 376.159 104.272 375.567 104.784C374.991 105.28 374.639 105.976 374.511 106.872Z" fill="url(#paint1_linear_128_481)"/>
<path d="M360.5 700.5H1.5" stroke="white" stroke-width="4" stroke-linejoin="round"/>
<path d="M1291.5 546.5H828" stroke="white" stroke-width="4" stroke-linejoin="round"/>
<path d="M1107 711.5H719" stroke="white" stroke-width="4" stroke-linejoin="round"/>
<path d="M5.072 399V393.944C5.072 390.829 5.60533 388.269 6.672 386.264C7.73867 384.259 9.25333 382.637 11.216 381.4C13.2213 380.12 15.632 379.053 18.448 378.2L22.352 376.984C24.1013 376.429 25.5947 375.747 26.832 374.936C28.112 374.125 29.0933 373.123 29.776 371.928C30.4587 370.691 30.8 369.261 30.8 367.64V367.384C30.8 364.867 29.9467 362.904 28.24 361.496C26.5333 360.045 24.2933 359.32 21.52 359.32C18.6613 359.32 16.336 360.088 14.544 361.624C12.7947 363.16 11.92 365.421 11.92 368.408V369.432H5.264V368.472C5.264 365.229 5.968 362.499 7.376 360.28C8.784 358.019 10.7253 356.291 13.2 355.096C15.6747 353.901 18.448 353.304 21.52 353.304C24.592 353.304 27.3227 353.88 29.712 355.032C32.144 356.184 34.0427 357.805 35.408 359.896C36.816 361.987 37.52 364.44 37.52 367.256V367.832C37.52 370.733 36.944 373.144 35.792 375.064C34.64 376.984 33.04 378.563 30.992 379.8C28.9867 381.037 26.6613 382.083 24.016 382.936L20.24 384.088C18.2347 384.685 16.6133 385.347 15.376 386.072C14.1813 386.755 13.2853 387.587 12.688 388.568C12.1333 389.549 11.856 390.808 11.856 392.344V392.984H37.136V399H5.072ZM59.578 399.896C56.2073 399.896 53.2847 399.277 50.81 398.04C48.3353 396.803 46.4153 395.053 45.05 392.792C43.7273 390.531 43.066 387.907 43.066 384.92V384.216H49.914V384.856C49.914 387.587 50.746 389.784 52.41 391.448C54.1167 393.069 56.4847 393.88 59.514 393.88C62.6287 393.88 65.0393 393.027 66.746 391.32C68.4527 389.613 69.306 387.309 69.306 384.408V383.832C69.306 381.059 68.4527 378.84 66.746 377.176C65.082 375.512 62.9487 374.68 60.346 374.68C58.8953 374.68 57.6793 374.915 56.698 375.384C55.7593 375.811 54.9913 376.344 54.394 376.984C53.8393 377.624 53.37 378.243 52.986 378.84H44.474V354.2H74.49V360.28H51.194V373.464H52.218C52.6447 372.739 53.242 372.056 54.01 371.416C54.8207 370.733 55.866 370.179 57.146 369.752C58.426 369.325 59.962 369.112 61.754 369.112C64.3993 369.112 66.7887 369.688 68.922 370.84C71.098 371.949 72.826 373.613 74.106 375.832C75.386 378.008 76.026 380.653 76.026 383.768V384.472C76.026 387.587 75.3647 390.296 74.042 392.6C72.7193 394.904 70.8207 396.696 68.346 397.976C65.914 399.256 62.9913 399.896 59.578 399.896ZM87.5865 399.832L83.4905 396.504L118.499 353.368L122.595 356.696L87.5865 399.832ZM115.299 399.704C112.141 399.704 109.645 398.829 107.811 397.08C105.976 395.288 105.059 392.877 105.059 389.848V389.464C105.059 386.392 105.976 383.981 107.811 382.232C109.645 380.44 112.141 379.544 115.299 379.544C118.413 379.544 120.909 380.44 122.787 382.232C124.664 383.981 125.603 386.392 125.603 389.464V389.848C125.603 392.877 124.664 395.288 122.787 397.08C120.952 398.829 118.456 399.704 115.299 399.704ZM115.299 395.224C116.835 395.224 118.029 394.755 118.883 393.816C119.779 392.877 120.227 391.64 120.227 390.104V389.208C120.227 387.629 119.779 386.371 118.883 385.432C118.029 384.493 116.835 384.024 115.299 384.024C113.805 384.024 112.611 384.493 111.715 385.432C110.861 386.371 110.435 387.629 110.435 389.208V390.104C110.435 391.64 110.861 392.877 111.715 393.816C112.611 394.755 113.805 395.224 115.299 395.224ZM90.7865 373.656C87.6292 373.656 85.1118 372.781 83.2345 371.032C81.3998 369.24 80.4825 366.829 80.4825 363.8V363.352C80.4825 360.28 81.3998 357.869 83.2345 356.12C85.1118 354.371 87.6292 353.496 90.7865 353.496C93.9012 353.496 96.3758 354.371 98.2105 356.12C100.088 357.869 101.027 360.28 101.027 363.352V363.8C101.027 366.829 100.109 369.24 98.2745 371.032C96.4398 372.781 93.9438 373.656 90.7865 373.656ZM90.7865 369.176C92.2798 369.176 93.4532 368.707 94.3065 367.768C95.2025 366.787 95.6505 365.528 95.6505 363.992V363.096C95.6505 361.56 95.2025 360.323 94.3065 359.384C93.4532 358.445 92.2798 357.976 90.7865 357.976C89.2505 357.976 88.0345 358.445 87.1385 359.384C86.2852 360.323 85.8585 361.56 85.8585 363.096V363.992C85.8585 365.528 86.2852 366.787 87.1385 367.768C88.0345 368.707 89.2505 369.176 90.7865 369.176Z" fill="url(#paint2_linear_128_481)"/>
<path d="M19.456 637.896C16.1707 637.896 13.248 637.299 10.688 636.104C8.128 634.909 6.12267 633.181 4.672 630.92C3.264 628.659 2.56 625.971 2.56 622.856V621.704H9.28V622.728C9.28 625.544 10.1973 627.784 12.032 629.448C13.9093 631.069 16.384 631.88 19.456 631.88C22.528 631.88 24.9173 631.112 26.624 629.576C28.3307 628.04 29.184 626.099 29.184 623.752V623.176C29.184 621.512 28.7787 620.168 27.968 619.144C27.1573 618.12 26.0693 617.373 24.704 616.904C23.3387 616.392 21.8027 616.136 20.096 616.136H11.968V608.392L27.712 599.112V598.216H3.648V592.2H35.008V601.288L19.968 610.248V611.144H22.72C24.9813 611.144 27.1147 611.571 29.12 612.424C31.1253 613.277 32.7467 614.579 33.984 616.328C35.264 618.077 35.904 620.296 35.904 622.984V623.752C35.904 626.611 35.2213 629.107 33.856 631.24C32.4907 633.331 30.5707 634.973 28.096 636.168C25.6213 637.32 22.7413 637.896 19.456 637.896ZM47.8365 637.832L43.7405 634.504L78.7485 591.368L82.8445 594.696L47.8365 637.832ZM75.5485 637.704C72.3912 637.704 69.8952 636.829 68.0605 635.08C66.2258 633.288 65.3085 630.877 65.3085 627.848V627.464C65.3085 624.392 66.2258 621.981 68.0605 620.232C69.8952 618.44 72.3912 617.544 75.5485 617.544C78.6632 617.544 81.1592 618.44 83.0365 620.232C84.9138 621.981 85.8525 624.392 85.8525 627.464V627.848C85.8525 630.877 84.9138 633.288 83.0365 635.08C81.2018 636.829 78.7058 637.704 75.5485 637.704ZM75.5485 633.224C77.0845 633.224 78.2792 632.755 79.1325 631.816C80.0285 630.877 80.4765 629.64 80.4765 628.104V627.208C80.4765 625.629 80.0285 624.371 79.1325 623.432C78.2792 622.493 77.0845 622.024 75.5485 622.024C74.0552 622.024 72.8605 622.493 71.9645 623.432C71.1112 624.371 70.6845 625.629 70.6845 627.208V628.104C70.6845 629.64 71.1112 630.877 71.9645 631.816C72.8605 632.755 74.0552 633.224 75.5485 633.224ZM51.0365 611.656C47.8792 611.656 45.3618 610.781 43.4845 609.032C41.6498 607.24 40.7325 604.829 40.7325 601.8V601.352C40.7325 598.28 41.6498 595.869 43.4845 594.12C45.3618 592.371 47.8792 591.496 51.0365 591.496C54.1512 591.496 56.6258 592.371 58.4605 594.12C60.3378 595.869 61.2765 598.28 61.2765 601.352V601.8C61.2765 604.829 60.3592 607.24 58.5245 609.032C56.6898 610.781 54.1938 611.656 51.0365 611.656ZM51.0365 607.176C52.5298 607.176 53.7032 606.707 54.5565 605.768C55.4525 604.787 55.9005 603.528 55.9005 601.992V601.096C55.9005 599.56 55.4525 598.323 54.5565 597.384C53.7032 596.445 52.5298 595.976 51.0365 595.976C49.5005 595.976 48.2845 596.445 47.3885 597.384C46.5352 598.323 46.1085 599.56 46.1085 601.096V601.992C46.1085 603.528 46.5352 604.787 47.3885 605.768C48.2845 606.707 49.5005 607.176 51.0365 607.176Z" fill="url(#paint3_linear_128_481)"/>
<path d="M9.464 444.336C8.2 444.336 7.08 444.112 6.104 443.664C5.128 443.216 4.36 442.56 3.8 441.696C3.256 440.816 2.984 439.752 2.984 438.504V437.904H5.552V438.504C5.552 439.688 5.904 440.576 6.608 441.168C7.328 441.76 8.28 442.056 9.464 442.056C10.664 442.056 11.568 441.808 12.176 441.312C12.784 440.8 13.088 440.144 13.088 439.344C13.088 438.816 12.944 438.384 12.656 438.048C12.368 437.712 11.96 437.448 11.432 437.256C10.904 437.048 10.272 436.856 9.536 436.68L8.648 436.464C7.576 436.208 6.64 435.896 5.84 435.528C5.056 435.144 4.448 434.64 4.016 434.016C3.584 433.392 3.368 432.592 3.368 431.616C3.368 430.624 3.608 429.776 4.088 429.072C4.584 428.368 5.264 427.824 6.128 427.44C6.992 427.056 8.008 426.864 9.176 426.864C10.344 426.864 11.384 427.064 12.296 427.464C13.224 427.864 13.952 428.456 14.48 429.24C15.008 430.024 15.272 431.008 15.272 432.192V433.056H12.704V432.192C12.704 431.472 12.552 430.888 12.248 430.44C11.96 429.992 11.552 429.664 11.024 429.456C10.496 429.248 9.88 429.144 9.176 429.144C8.152 429.144 7.352 429.36 6.776 429.792C6.216 430.208 5.936 430.792 5.936 431.544C5.936 432.056 6.056 432.48 6.296 432.816C6.552 433.136 6.92 433.4 7.4 433.608C7.88 433.816 8.48 434 9.2 434.16L10.088 434.376C11.176 434.616 12.136 434.928 12.968 435.312C13.8 435.68 14.456 436.184 14.936 436.824C15.416 437.464 15.656 438.288 15.656 439.296C15.656 440.304 15.4 441.184 14.888 441.936C14.392 442.688 13.68 443.28 12.752 443.712C11.824 444.128 10.728 444.336 9.464 444.336ZM22.121 444.336C21.273 444.336 20.513 444.192 19.841 443.904C19.185 443.616 18.657 443.192 18.257 442.632C17.873 442.072 17.681 441.392 17.681 440.592C17.681 439.776 17.873 439.104 18.257 438.576C18.657 438.032 19.193 437.624 19.865 437.352C20.553 437.08 21.329 436.944 22.193 436.944H25.793V436.176C25.793 435.488 25.585 434.936 25.169 434.52C24.753 434.104 24.113 433.896 23.249 433.896C22.401 433.896 21.753 434.096 21.305 434.496C20.857 434.896 20.561 435.416 20.417 436.056L18.113 435.312C18.305 434.672 18.609 434.096 19.025 433.584C19.457 433.056 20.025 432.632 20.729 432.312C21.433 431.992 22.281 431.832 23.273 431.832C24.809 431.832 26.017 432.224 26.897 433.008C27.777 433.792 28.217 434.904 28.217 436.344V441.216C28.217 441.696 28.441 441.936 28.889 441.936H29.897V444H28.049C27.489 444 27.033 443.856 26.681 443.568C26.329 443.28 26.153 442.888 26.153 442.392V442.32H25.793C25.665 442.56 25.473 442.84 25.217 443.16C24.961 443.48 24.585 443.76 24.089 444C23.593 444.224 22.937 444.336 22.121 444.336ZM22.481 442.296C23.473 442.296 24.273 442.016 24.881 441.456C25.489 440.88 25.793 440.096 25.793 439.104V438.864H22.337C21.681 438.864 21.153 439.008 20.753 439.296C20.353 439.568 20.153 439.976 20.153 440.52C20.153 441.064 20.361 441.496 20.777 441.816C21.193 442.136 21.761 442.296 22.481 442.296ZM32.3006 444V427.2H34.7726V444H32.3006ZM43.8652 444.336C42.6652 444.336 41.6172 444.088 40.7212 443.592C39.8252 443.08 39.1212 442.368 38.6092 441.456C38.1132 440.528 37.8652 439.456 37.8652 438.24V437.952C37.8652 436.72 38.1132 435.648 38.6092 434.736C39.1052 433.808 39.7932 433.096 40.6732 432.6C41.5692 432.088 42.6012 431.832 43.7692 431.832C44.9052 431.832 45.8972 432.088 46.7452 432.6C47.6092 433.096 48.2812 433.792 48.7612 434.688C49.2412 435.584 49.4812 436.632 49.4812 437.832V438.768H40.3852C40.4172 439.808 40.7612 440.64 41.4172 441.264C42.0892 441.872 42.9212 442.176 43.9132 442.176C44.8412 442.176 45.5372 441.968 46.0012 441.552C46.4812 441.136 46.8492 440.656 47.1052 440.112L49.1452 441.168C48.9212 441.616 48.5932 442.088 48.1612 442.584C47.7452 443.08 47.1932 443.496 46.5052 443.832C45.8172 444.168 44.9372 444.336 43.8652 444.336ZM40.4092 436.872H46.9612C46.8972 435.976 46.5772 435.28 46.0012 434.784C45.4252 434.272 44.6732 434.016 43.7452 434.016C42.8172 434.016 42.0572 434.272 41.4652 434.784C40.8892 435.28 40.5372 435.976 40.4092 436.872Z" fill="url(#paint4_linear_128_481)"/>
<path d="M1.752 682V665.2H4.344V679.648H12.432V682H1.752ZM14.8787 682V670.168H17.3507V682H14.8787ZM16.1267 668.56C15.6467 668.56 15.2387 668.408 14.9027 668.104C14.5827 667.784 14.4227 667.376 14.4227 666.88C14.4227 666.384 14.5827 665.984 14.9027 665.68C15.2387 665.36 15.6467 665.2 16.1267 665.2C16.6227 665.2 17.0307 665.36 17.3507 665.68C17.6707 665.984 17.8307 666.384 17.8307 666.88C17.8307 667.376 17.6707 667.784 17.3507 668.104C17.0307 668.408 16.6227 668.56 16.1267 668.56ZM30.2833 686.8V680.392H29.8993C29.7233 680.712 29.4673 681.024 29.1313 681.328C28.7953 681.616 28.3633 681.856 27.8353 682.048C27.3233 682.24 26.6833 682.336 25.9153 682.336C24.9233 682.336 24.0113 682.096 23.1793 681.616C22.3473 681.136 21.6833 680.448 21.1873 679.552C20.6913 678.64 20.4433 677.544 20.4433 676.264V675.904C20.4433 674.624 20.6913 673.536 21.1873 672.64C21.6993 671.728 22.3713 671.032 23.2033 670.552C24.0353 670.072 24.9393 669.832 25.9153 669.832C27.0673 669.832 27.9473 670.04 28.5553 670.456C29.1793 670.872 29.6433 671.344 29.9473 671.872H30.3313V670.168H32.7553V686.8H30.2833ZM26.6113 680.176C27.6993 680.176 28.5873 679.832 29.2753 679.144C29.9633 678.456 30.3073 677.472 30.3073 676.192V675.976C30.3073 674.712 29.9553 673.736 29.2513 673.048C28.5633 672.36 27.6833 672.016 26.6113 672.016C25.5553 672.016 24.6753 672.36 23.9713 673.048C23.2833 673.736 22.9393 674.712 22.9393 675.976V676.192C22.9393 677.472 23.2833 678.456 23.9713 679.144C24.6753 679.832 25.5553 680.176 26.6113 680.176ZM40.9303 682.216C40.0343 682.216 39.2343 682.016 38.5303 681.616C37.8263 681.216 37.2743 680.648 36.8743 679.912C36.4743 679.176 36.2743 678.296 36.2743 677.272V670.168H38.7463V677.104C38.7463 678.128 39.0023 678.888 39.5143 679.384C40.0263 679.864 40.7383 680.104 41.6503 680.104C42.6583 680.104 43.4663 679.768 44.0743 679.096C44.6983 678.408 45.0103 677.424 45.0103 676.144V670.168H47.4823V682H45.0583V680.224H44.6743C44.4503 680.704 44.0503 681.16 43.4743 681.592C42.8983 682.008 42.0503 682.216 40.9303 682.216ZM51.1365 682V670.168H53.6085V682H51.1365ZM52.3845 668.56C51.9045 668.56 51.4965 668.408 51.1605 668.104C50.8405 667.784 50.6805 667.376 50.6805 666.88C50.6805 666.384 50.8405 665.984 51.1605 665.68C51.4965 665.36 51.9045 665.2 52.3845 665.2C52.8805 665.2 53.2885 665.36 53.6085 665.68C53.9285 665.984 54.0885 666.384 54.0885 666.88C54.0885 667.376 53.9285 667.784 53.6085 668.104C53.2885 668.408 52.8805 668.56 52.3845 668.56ZM62.1731 682.336C61.1971 682.336 60.2931 682.096 59.4611 681.616C58.6291 681.136 57.9571 680.448 57.4451 679.552C56.9491 678.64 56.7011 677.544 56.7011 676.264V675.904C56.7011 674.64 56.9491 673.552 57.4451 672.64C57.9411 671.728 58.6051 671.032 59.4371 670.552C60.2691 670.072 61.1811 669.832 62.1731 669.832C62.9411 669.832 63.5811 669.928 64.0931 670.12C64.6211 670.312 65.0531 670.56 65.3891 670.864C65.7251 671.152 65.9811 671.456 66.1571 671.776H66.5411V665.2H69.0131V682H66.5891V680.32H66.2051C65.9011 680.832 65.4371 681.296 64.8131 681.712C64.2051 682.128 63.3251 682.336 62.1731 682.336ZM62.8691 680.176C63.9411 680.176 64.8211 679.832 65.5091 679.144C66.2131 678.456 66.5651 677.472 66.5651 676.192V675.976C66.5651 674.712 66.2211 673.736 65.5331 673.048C64.8451 672.36 63.9571 672.016 62.8691 672.016C61.8131 672.016 60.9331 672.36 60.2291 673.048C59.5411 673.736 59.1971 674.712 59.1971 675.976V676.192C59.1971 677.472 59.5411 678.456 60.2291 679.144C60.9331 679.832 61.8131 680.176 62.8691 680.176ZM72.6521 682V670.168H75.1241V682H72.6521ZM73.9001 668.56C73.4201 668.56 73.0121 668.408 72.6761 668.104C72.3561 667.784 72.1961 667.376 72.1961 666.88C72.1961 666.384 72.3561 665.984 72.6761 665.68C73.0121 665.36 73.4201 665.2 73.9001 665.2C74.3961 665.2 74.8041 665.36 75.1241 665.68C75.4441 665.984 75.6041 666.384 75.6041 666.88C75.6041 667.376 75.4441 667.784 75.1241 668.104C74.8041 668.408 74.3961 668.56 73.9001 668.56ZM83.2328 682C82.5128 682 81.9368 681.784 81.5048 681.352C81.0888 680.92 80.8808 680.344 80.8808 679.624V672.256H77.6168V670.168H80.8808V666.256H83.3528V670.168H86.8808V672.256H83.3528V679.192C83.3528 679.672 83.5768 679.912 84.0247 679.912H86.4968V682H83.2328ZM91.1529 686.8V684.64H97.7529C98.2009 684.64 98.4249 684.4 98.4249 683.92V680.272H98.0409C97.8969 680.592 97.6729 680.904 97.3689 681.208C97.0809 681.496 96.6889 681.736 96.1929 681.928C95.6969 682.12 95.0729 682.216 94.3209 682.216C93.4249 682.216 92.6249 682.016 91.9209 681.616C91.2169 681.216 90.6649 680.648 90.2649 679.912C89.8649 679.176 89.6649 678.304 89.6649 677.296V670.168H92.1369V677.104C92.1369 678.128 92.3929 678.888 92.9049 679.384C93.4169 679.864 94.1289 680.104 95.0409 680.104C96.0489 680.104 96.8569 679.768 97.4649 679.096C98.0889 678.424 98.4009 677.448 98.4009 676.168V670.168H100.873V684.424C100.873 685.144 100.657 685.72 100.225 686.152C99.8089 686.584 99.2329 686.8 98.4969 686.8H91.1529Z" fill="url(#paint5_linear_128_481)"/>
<path d="M875.448 215V174.936H874.424L867.064 190.04H859.96L869.88 170.2H882.168V215H875.448ZM906.141 215.896C902.77 215.896 899.847 215.277 897.373 214.04C894.898 212.803 892.978 211.053 891.613 208.792C890.29 206.531 889.629 203.907 889.629 200.92V200.216H896.477V200.856C896.477 203.587 897.309 205.784 898.973 207.448C900.679 209.069 903.047 209.88 906.077 209.88C909.191 209.88 911.602 209.027 913.309 207.32C915.015 205.613 915.869 203.309 915.869 200.408V199.832C915.869 197.059 915.015 194.84 913.309 193.176C911.645 191.512 909.511 190.68 906.909 190.68C905.458 190.68 904.242 190.915 903.26 191.384C902.322 191.811 901.554 192.344 900.957 192.984C900.402 193.624 899.933 194.243 899.549 194.84H891.036V170.2H921.053V176.28H897.757V189.464H898.781C899.207 188.739 899.805 188.056 900.573 187.416C901.383 186.733 902.429 186.179 903.708 185.752C904.988 185.325 906.525 185.112 908.317 185.112C910.962 185.112 913.351 185.688 915.485 186.84C917.661 187.949 919.389 189.613 920.669 191.832C921.949 194.008 922.589 196.653 922.589 199.768V200.472C922.589 203.587 921.927 206.296 920.604 208.6C919.282 210.904 917.383 212.696 914.909 213.976C912.477 215.256 909.554 215.896 906.141 215.896ZM934.149 215.832L930.053 212.504L965.061 169.368L969.157 172.696L934.149 215.832ZM961.861 215.704C958.704 215.704 956.208 214.829 954.373 213.08C952.538 211.288 951.621 208.877 951.621 205.848V205.464C951.621 202.392 952.538 199.981 954.373 198.232C956.208 196.44 958.704 195.544 961.861 195.544C964.976 195.544 967.472 196.44 969.349 198.232C971.226 199.981 972.165 202.392 972.165 205.464V205.848C972.165 208.877 971.226 211.288 969.349 213.08C967.514 214.829 965.018 215.704 961.861 215.704ZM961.861 211.224C963.397 211.224 964.592 210.755 965.445 209.816C966.341 208.877 966.789 207.64 966.789 206.104V205.208C966.789 203.629 966.341 202.371 965.445 201.432C964.592 200.493 963.397 200.024 961.861 200.024C960.368 200.024 959.173 200.493 958.277 201.432C957.424 202.371 956.997 203.629 956.997 205.208V206.104C956.997 207.64 957.424 208.877 958.277 209.816C959.173 210.755 960.368 211.224 961.861 211.224ZM937.349 189.656C934.192 189.656 931.674 188.781 929.797 187.032C927.962 185.24 927.045 182.829 927.045 179.8V179.352C927.045 176.28 927.962 173.869 929.797 172.12C931.674 170.371 934.192 169.496 937.349 169.496C940.464 169.496 942.938 170.371 944.773 172.12C946.65 173.869 947.589 176.28 947.589 179.352V179.8C947.589 182.829 946.672 185.24 944.837 187.032C943.002 188.781 940.506 189.656 937.349 189.656ZM937.349 185.176C938.842 185.176 940.016 184.707 940.869 183.768C941.765 182.787 942.213 181.528 942.213 179.992V179.096C942.213 177.56 941.765 176.323 940.869 175.384C940.016 174.445 938.842 173.976 937.349 173.976C935.813 173.976 934.597 174.445 933.701 175.384C932.848 176.323 932.421 177.56 932.421 179.096V179.992C932.421 181.528 932.848 182.787 933.701 183.768C934.597 184.707 935.813 185.176 937.349 185.176Z" fill="url(#paint6_linear_128_481)"/>
<path d="M864.76 260V245.552H859.6V243.2H872.512V245.552H867.352V260H864.76ZM878.037 260.336C876.837 260.336 875.789 260.088 874.893 259.592C873.997 259.08 873.293 258.368 872.781 257.456C872.285 256.528 872.037 255.456 872.037 254.24V253.952C872.037 252.72 872.285 251.648 872.781 250.736C873.277 249.808 873.965 249.096 874.845 248.6C875.741 248.088 876.773 247.832 877.941 247.832C879.077 247.832 880.069 248.088 880.917 248.6C881.781 249.096 882.453 249.792 882.933 250.688C883.413 251.584 883.653 252.632 883.653 253.832V254.768H874.557C874.589 255.808 874.933 256.64 875.589 257.264C876.261 257.872 877.093 258.176 878.085 258.176C879.013 258.176 879.709 257.968 880.173 257.552C880.653 257.136 881.021 256.656 881.277 256.112L883.317 257.168C883.093 257.616 882.765 258.088 882.333 258.584C881.917 259.08 881.365 259.496 880.677 259.832C879.989 260.168 879.109 260.336 878.037 260.336ZM874.581 252.872H881.133C881.069 251.976 880.749 251.28 880.173 250.784C879.597 250.272 878.845 250.016 877.917 250.016C876.989 250.016 876.229 250.272 875.637 250.784C875.061 251.28 874.709 251.976 874.581 252.872ZM890.301 260.336C889.453 260.336 888.693 260.192 888.021 259.904C887.365 259.616 886.837 259.192 886.437 258.632C886.053 258.072 885.861 257.392 885.861 256.592C885.861 255.776 886.053 255.104 886.437 254.576C886.837 254.032 887.373 253.624 888.045 253.352C888.733 253.08 889.509 252.944 890.373 252.944H893.973V252.176C893.973 251.488 893.765 250.936 893.349 250.52C892.933 250.104 892.293 249.896 891.429 249.896C890.581 249.896 889.933 250.096 889.485 250.496C889.037 250.896 888.741 251.416 888.597 252.056L886.293 251.312C886.485 250.672 886.789 250.096 887.205 249.584C887.637 249.056 888.205 248.632 888.909 248.312C889.613 247.992 890.461 247.832 891.453 247.832C892.989 247.832 894.197 248.224 895.077 249.008C895.957 249.792 896.397 250.904 896.397 252.344V257.216C896.397 257.696 896.621 257.936 897.069 257.936H898.077V260H896.229C895.669 260 895.213 259.856 894.861 259.568C894.509 259.28 894.333 258.888 894.333 258.392V258.32H893.973C893.845 258.56 893.653 258.84 893.397 259.16C893.141 259.48 892.765 259.76 892.269 260C891.773 260.224 891.117 260.336 890.301 260.336ZM890.661 258.296C891.653 258.296 892.453 258.016 893.061 257.456C893.669 256.88 893.973 256.096 893.973 255.104V254.864H890.517C889.861 254.864 889.333 255.008 888.933 255.296C888.533 255.568 888.333 255.976 888.333 256.52C888.333 257.064 888.541 257.496 888.957 257.816C889.373 258.136 889.941 258.296 890.661 258.296ZM900.48 260V248.168H902.904V249.56H903.288C903.512 249.144 903.872 248.776 904.368 248.456C904.864 248.136 905.536 247.976 906.384 247.976C907.264 247.976 907.968 248.16 908.496 248.528C909.04 248.88 909.448 249.336 909.72 249.896H910.104C910.376 249.352 910.768 248.896 911.28 248.528C911.808 248.16 912.552 247.976 913.512 247.976C914.28 247.976 914.96 248.136 915.552 248.456C916.144 248.76 916.616 249.224 916.968 249.848C917.32 250.456 917.496 251.216 917.496 252.128V260H915.024V252.32C915.024 251.6 914.824 251.048 914.424 250.664C914.04 250.264 913.488 250.064 912.768 250.064C912 250.064 911.384 250.312 910.92 250.808C910.456 251.304 910.224 252.016 910.224 252.944V260H907.752V252.32C907.752 251.6 907.552 251.048 907.152 250.664C906.768 250.264 906.216 250.064 905.496 250.064C904.728 250.064 904.112 250.312 903.648 250.808C903.184 251.304 902.952 252.016 902.952 252.944V260H900.48ZM925.551 260L930.351 243.2H934.911L939.687 260H937.023L935.919 256.04H929.343L928.239 260H925.551ZM929.991 253.64H935.271L932.823 244.808H932.439L929.991 253.64ZM942.035 260V243.2H944.507V260H942.035ZM948.176 260V243.2H950.648V260H948.176ZM959.86 260.336C958.676 260.336 957.62 260.096 956.692 259.616C955.78 259.12 955.06 258.416 954.532 257.504C954.004 256.592 953.74 255.512 953.74 254.264V253.904C953.74 252.656 954.004 251.584 954.532 250.688C955.06 249.776 955.78 249.072 956.692 248.576C957.62 248.08 958.676 247.832 959.86 247.832C961.044 247.832 962.1 248.08 963.028 248.576C963.956 249.072 964.684 249.776 965.212 250.688C965.74 251.584 966.004 252.656 966.004 253.904V254.264C966.004 255.512 965.74 256.592 965.212 257.504C964.684 258.416 963.956 259.12 963.028 259.616C962.1 260.096 961.044 260.336 959.86 260.336ZM959.86 258.128C960.948 258.128 961.828 257.784 962.5 257.096C963.188 256.392 963.532 255.424 963.532 254.192V253.976C963.532 252.744 963.196 251.784 962.524 251.096C961.852 250.392 960.964 250.04 959.86 250.04C958.788 250.04 957.908 250.392 957.22 251.096C956.548 251.784 956.212 252.744 956.212 253.976V254.192C956.212 255.424 956.548 256.392 957.22 257.096C957.908 257.784 958.788 258.128 959.86 258.128ZM974.578 260.336C973.442 260.336 972.41 260.096 971.482 259.616C970.57 259.136 969.842 258.44 969.298 257.528C968.77 256.616 968.506 255.52 968.506 254.24V253.928C968.506 252.648 968.77 251.56 969.298 250.664C969.842 249.752 970.57 249.056 971.482 248.576C972.41 248.08 973.442 247.832 974.578 247.832C975.714 247.832 976.682 248.04 977.482 248.456C978.282 248.872 978.922 249.424 979.402 250.112C979.898 250.8 980.218 251.56 980.362 252.392L977.962 252.896C977.882 252.368 977.714 251.888 977.458 251.456C977.202 251.024 976.842 250.68 976.378 250.424C975.914 250.168 975.33 250.04 974.626 250.04C973.938 250.04 973.314 250.2 972.754 250.52C972.21 250.824 971.778 251.272 971.458 251.864C971.138 252.44 970.978 253.144 970.978 253.976V254.192C970.978 255.024 971.138 255.736 971.458 256.328C971.778 256.92 972.21 257.368 972.754 257.672C973.314 257.976 973.938 258.128 974.626 258.128C975.666 258.128 976.458 257.864 977.002 257.336C977.546 256.792 977.89 256.104 978.034 255.272L980.434 255.824C980.242 256.64 979.898 257.392 979.402 258.08C978.922 258.768 978.282 259.32 977.482 259.736C976.682 260.136 975.714 260.336 974.578 260.336ZM986.957 260.336C986.109 260.336 985.349 260.192 984.677 259.904C984.021 259.616 983.493 259.192 983.093 258.632C982.709 258.072 982.517 257.392 982.517 256.592C982.517 255.776 982.709 255.104 983.093 254.576C983.493 254.032 984.029 253.624 984.701 253.352C985.389 253.08 986.165 252.944 987.029 252.944H990.629V252.176C990.629 251.488 990.421 250.936 990.005 250.52C989.589 250.104 988.949 249.896 988.085 249.896C987.237 249.896 986.589 250.096 986.141 250.496C985.693 250.896 985.397 251.416 985.253 252.056L982.949 251.312C983.141 250.672 983.445 250.096 983.861 249.584C984.293 249.056 984.861 248.632 985.565 248.312C986.269 247.992 987.117 247.832 988.109 247.832C989.645 247.832 990.853 248.224 991.733 249.008C992.613 249.792 993.053 250.904 993.053 252.344V257.216C993.053 257.696 993.277 257.936 993.725 257.936H994.733V260H992.885C992.325 260 991.869 259.856 991.517 259.568C991.165 259.28 990.989 258.888 990.989 258.392V258.32H990.629C990.501 258.56 990.309 258.84 990.053 259.16C989.797 259.48 989.421 259.76 988.925 260C988.429 260.224 987.773 260.336 986.957 260.336ZM987.317 258.296C988.309 258.296 989.109 258.016 989.717 257.456C990.325 256.88 990.629 256.096 990.629 255.104V254.864H987.173C986.517 254.864 985.989 255.008 985.589 255.296C985.189 255.568 984.989 255.976 984.989 256.52C984.989 257.064 985.197 257.496 985.613 257.816C986.029 258.136 986.597 258.296 987.317 258.296ZM1000.76 260C1000.04 260 999.46 259.784 999.028 259.352C998.612 258.92 998.404 258.344 998.404 257.624V250.256H995.14V248.168H998.404V244.256H1000.88V248.168H1004.4V250.256H1000.88V257.192C1000.88 257.672 1001.1 257.912 1001.55 257.912H1004.02V260H1000.76ZM1007.31 260V248.168H1009.78V260H1007.31ZM1008.56 246.56C1008.08 246.56 1007.67 246.408 1007.33 246.104C1007.01 245.784 1006.85 245.376 1006.85 244.88C1006.85 244.384 1007.01 243.984 1007.33 243.68C1007.67 243.36 1008.08 243.2 1008.56 243.2C1009.05 243.2 1009.46 243.36 1009.78 243.68C1010.1 243.984 1010.26 244.384 1010.26 244.88C1010.26 245.376 1010.1 245.784 1009.78 246.104C1009.46 246.408 1009.05 246.56 1008.56 246.56ZM1018.99 260.336C1017.81 260.336 1016.75 260.096 1015.83 259.616C1014.91 259.12 1014.19 258.416 1013.67 257.504C1013.14 256.592 1012.87 255.512 1012.87 254.264V253.904C1012.87 252.656 1013.14 251.584 1013.67 250.688C1014.19 249.776 1014.91 249.072 1015.83 248.576C1016.75 248.08 1017.81 247.832 1018.99 247.832C1020.18 247.832 1021.23 248.08 1022.16 248.576C1023.09 249.072 1023.82 249.776 1024.35 250.688C1024.87 251.584 1025.14 252.656 1025.14 253.904V254.264C1025.14 255.512 1024.87 256.592 1024.35 257.504C1023.82 258.416 1023.09 259.12 1022.16 259.616C1021.23 260.096 1020.18 260.336 1018.99 260.336ZM1018.99 258.128C1020.08 258.128 1020.96 257.784 1021.63 257.096C1022.32 256.392 1022.67 255.424 1022.67 254.192V253.976C1022.67 252.744 1022.33 251.784 1021.66 251.096C1020.99 250.392 1020.1 250.04 1018.99 250.04C1017.92 250.04 1017.04 250.392 1016.35 251.096C1015.68 251.784 1015.35 252.744 1015.35 253.976V254.192C1015.35 255.424 1015.68 256.392 1016.35 257.096C1017.04 257.784 1017.92 258.128 1018.99 258.128ZM1028.21 260V248.168H1030.64V249.944H1031.02C1031.25 249.464 1031.65 249.016 1032.22 248.6C1032.8 248.184 1033.65 247.976 1034.79 247.976C1035.69 247.976 1036.48 248.176 1037.17 248.576C1037.87 248.976 1038.42 249.544 1038.82 250.28C1039.22 251 1039.42 251.872 1039.42 252.896V260H1036.95V253.088C1036.95 252.064 1036.69 251.312 1036.18 250.832C1035.67 250.336 1034.97 250.088 1034.07 250.088C1033.05 250.088 1032.22 250.424 1031.6 251.096C1030.99 251.768 1030.69 252.744 1030.69 254.024V260H1028.21Z" fill="url(#paint7_linear_128_481)"/>
<path d="M1002.45 483V442.936H1001.42L994.064 458.04H986.96L996.88 438.2H1009.17V483H1002.45ZM1034.42 483.896C1029.22 483.896 1025.06 482.424 1021.94 479.48C1018.87 476.493 1017.33 472.013 1017.33 466.04V455.16C1017.33 449.315 1018.87 444.877 1021.94 441.848C1025.06 438.819 1029.22 437.304 1034.42 437.304C1039.67 437.304 1043.83 438.819 1046.9 441.848C1050.02 444.877 1051.57 449.315 1051.57 455.16V466.04C1051.57 472.013 1050.02 476.493 1046.9 479.48C1043.83 482.424 1039.67 483.896 1034.42 483.896ZM1034.42 477.88C1037.96 477.88 1040.59 476.877 1042.29 474.872C1044 472.824 1044.85 469.965 1044.85 466.296V454.776C1044.85 451.107 1043.94 448.291 1042.1 446.328C1040.27 444.323 1037.71 443.32 1034.42 443.32C1031.09 443.32 1028.53 444.344 1026.74 446.392C1024.95 448.397 1024.05 451.192 1024.05 454.776V466.296C1024.05 470.051 1024.91 472.931 1026.61 474.936C1028.36 476.899 1030.96 477.88 1034.42 477.88ZM1064.09 483.832L1059.99 480.504L1095 437.368L1099.09 440.696L1064.09 483.832ZM1091.8 483.704C1088.64 483.704 1086.15 482.829 1084.31 481.08C1082.48 479.288 1081.56 476.877 1081.56 473.848V473.464C1081.56 470.392 1082.48 467.981 1084.31 466.232C1086.15 464.44 1088.64 463.544 1091.8 463.544C1094.91 463.544 1097.41 464.44 1099.29 466.232C1101.16 467.981 1102.1 470.392 1102.1 473.464V473.848C1102.1 476.877 1101.16 479.288 1099.29 481.08C1097.45 482.829 1094.96 483.704 1091.8 483.704ZM1091.8 479.224C1093.33 479.224 1094.53 478.755 1095.38 477.816C1096.28 476.877 1096.73 475.64 1096.73 474.104V473.208C1096.73 471.629 1096.28 470.371 1095.38 469.432C1094.53 468.493 1093.33 468.024 1091.8 468.024C1090.31 468.024 1089.11 468.493 1088.21 469.432C1087.36 470.371 1086.93 471.629 1086.93 473.208V474.104C1086.93 475.64 1087.36 476.877 1088.21 477.816C1089.11 478.755 1090.31 479.224 1091.8 479.224ZM1067.29 457.656C1064.13 457.656 1061.61 456.781 1059.73 455.032C1057.9 453.24 1056.98 450.829 1056.98 447.8V447.352C1056.98 444.28 1057.9 441.869 1059.73 440.12C1061.61 438.371 1064.13 437.496 1067.29 437.496C1070.4 437.496 1072.88 438.371 1074.71 440.12C1076.59 441.869 1077.53 444.28 1077.53 447.352V447.8C1077.53 450.829 1076.61 453.24 1074.77 455.032C1072.94 456.781 1070.44 457.656 1067.29 457.656ZM1067.29 453.176C1068.78 453.176 1069.95 452.707 1070.81 451.768C1071.7 450.787 1072.15 449.528 1072.15 447.992V447.096C1072.15 445.56 1071.7 444.323 1070.81 443.384C1069.95 442.445 1068.78 441.976 1067.29 441.976C1065.75 441.976 1064.53 442.445 1063.64 443.384C1062.79 444.323 1062.36 445.56 1062.36 447.096V447.992C1062.36 449.528 1062.79 450.787 1063.64 451.768C1064.53 452.707 1065.75 453.176 1067.29 453.176Z" fill="url(#paint8_linear_128_481)"/>
<path d="M999.448 649V608.936H998.424L991.064 624.04H983.96L993.88 604.2H1006.17V649H999.448ZM1031.42 649.896C1026.22 649.896 1022.06 648.424 1018.94 645.48C1015.87 642.493 1014.33 638.013 1014.33 632.04V621.16C1014.33 615.315 1015.87 610.877 1018.94 607.848C1022.06 604.819 1026.22 603.304 1031.42 603.304C1036.67 603.304 1040.83 604.819 1043.9 607.848C1047.02 610.877 1048.57 615.315 1048.57 621.16V632.04C1048.57 638.013 1047.02 642.493 1043.9 645.48C1040.83 648.424 1036.67 649.896 1031.42 649.896ZM1031.42 643.88C1034.96 643.88 1037.59 642.877 1039.29 640.872C1041 638.824 1041.85 635.965 1041.85 632.296V620.776C1041.85 617.107 1040.94 614.291 1039.1 612.328C1037.27 610.323 1034.71 609.32 1031.42 609.32C1028.09 609.32 1025.53 610.344 1023.74 612.392C1021.95 614.397 1021.05 617.192 1021.05 620.776V632.296C1021.05 636.051 1021.91 638.931 1023.61 640.936C1025.36 642.899 1027.96 643.88 1031.42 643.88ZM1061.09 649.832L1056.99 646.504L1092 603.368L1096.09 606.696L1061.09 649.832ZM1088.8 649.704C1085.64 649.704 1083.15 648.829 1081.31 647.08C1079.48 645.288 1078.56 642.877 1078.56 639.848V639.464C1078.56 636.392 1079.48 633.981 1081.31 632.232C1083.15 630.44 1085.64 629.544 1088.8 629.544C1091.91 629.544 1094.41 630.44 1096.29 632.232C1098.16 633.981 1099.1 636.392 1099.1 639.464V639.848C1099.1 642.877 1098.16 645.288 1096.29 647.08C1094.45 648.829 1091.96 649.704 1088.8 649.704ZM1088.8 645.224C1090.33 645.224 1091.53 644.755 1092.38 643.816C1093.28 642.877 1093.73 641.64 1093.73 640.104V639.208C1093.73 637.629 1093.28 636.371 1092.38 635.432C1091.53 634.493 1090.33 634.024 1088.8 634.024C1087.31 634.024 1086.11 634.493 1085.21 635.432C1084.36 636.371 1083.93 637.629 1083.93 639.208V640.104C1083.93 641.64 1084.36 642.877 1085.21 643.816C1086.11 644.755 1087.31 645.224 1088.8 645.224ZM1064.29 623.656C1061.13 623.656 1058.61 622.781 1056.73 621.032C1054.9 619.24 1053.98 616.829 1053.98 613.8V613.352C1053.98 610.28 1054.9 607.869 1056.73 606.12C1058.61 604.371 1061.13 603.496 1064.29 603.496C1067.4 603.496 1069.88 604.371 1071.71 606.12C1073.59 607.869 1074.53 610.28 1074.53 613.352V613.8C1074.53 616.829 1073.61 619.24 1071.77 621.032C1069.94 622.781 1067.44 623.656 1064.29 623.656ZM1064.29 619.176C1065.78 619.176 1066.95 618.707 1067.81 617.768C1068.7 616.787 1069.15 615.528 1069.15 613.992V613.096C1069.15 611.56 1068.7 610.323 1067.81 609.384C1066.95 608.445 1065.78 607.976 1064.29 607.976C1062.75 607.976 1061.53 608.445 1060.64 609.384C1059.79 610.323 1059.36 611.56 1059.36 613.096V613.992C1059.36 615.528 1059.79 616.787 1060.64 617.768C1061.53 618.707 1062.75 619.176 1064.29 619.176Z" fill="url(#paint9_linear_128_481)"/>
<path d="M994.064 528.336C992 528.336 990.36 527.76 989.144 526.608C987.928 525.44 987.32 523.76 987.32 521.568V517.632C987.32 515.44 987.928 513.768 989.144 512.616C990.36 511.448 992 510.864 994.064 510.864C996.128 510.864 997.768 511.448 998.984 512.616C1000.22 513.768 1000.83 515.44 1000.83 517.632V521.568C1000.83 523.76 1000.22 525.44 998.984 526.608C997.768 527.76 996.128 528.336 994.064 528.336ZM994.064 526.008C995.392 526.008 996.416 525.624 997.136 524.856C997.856 524.072 998.216 523.008 998.216 521.664V517.536C998.216 516.192 997.856 515.136 997.136 514.368C996.416 513.584 995.392 513.192 994.064 513.192C992.768 513.192 991.752 513.584 991.016 514.368C990.28 515.136 989.912 516.192 989.912 517.536V521.664C989.912 523.008 990.28 524.072 991.016 524.856C991.752 525.624 992.768 526.008 994.064 526.008ZM1003.97 532.8V516.168H1006.4V517.872H1006.78C1007.08 517.344 1007.54 516.872 1008.15 516.456C1008.77 516.04 1009.66 515.832 1010.81 515.832C1011.8 515.832 1012.71 516.072 1013.52 516.552C1014.36 517.032 1015.02 517.728 1015.52 518.64C1016.03 519.536 1016.28 520.624 1016.28 521.904V522.264C1016.28 523.544 1016.04 524.64 1015.54 525.552C1015.04 526.448 1014.38 527.136 1013.55 527.616C1012.72 528.096 1011.8 528.336 1010.81 528.336C1010.04 528.336 1009.4 528.24 1008.87 528.048C1008.34 527.856 1007.92 527.616 1007.6 527.328C1007.28 527.024 1007.02 526.712 1006.83 526.392H1006.44V532.8H1003.97ZM1010.09 526.176C1011.18 526.176 1012.07 525.832 1012.76 525.144C1013.44 524.456 1013.79 523.472 1013.79 522.192V521.976C1013.79 520.712 1013.44 519.736 1012.73 519.048C1012.04 518.36 1011.16 518.016 1010.09 518.016C1009.04 518.016 1008.16 518.36 1007.45 519.048C1006.76 519.736 1006.42 520.712 1006.42 521.976V522.192C1006.42 523.472 1006.76 524.456 1007.45 525.144C1008.16 525.832 1009.04 526.176 1010.09 526.176ZM1024.77 528.336C1023.57 528.336 1022.52 528.088 1021.63 527.592C1020.73 527.08 1020.03 526.368 1019.52 525.456C1019.02 524.528 1018.77 523.456 1018.77 522.24V521.952C1018.77 520.72 1019.02 519.648 1019.52 518.736C1020.01 517.808 1020.7 517.096 1021.58 516.6C1022.48 516.088 1023.51 515.832 1024.68 515.832C1025.81 515.832 1026.8 516.088 1027.65 516.6C1028.52 517.096 1029.19 517.792 1029.67 518.688C1030.15 519.584 1030.39 520.632 1030.39 521.832V522.768H1021.29C1021.32 523.808 1021.67 524.64 1022.32 525.264C1023 525.872 1023.83 526.176 1024.82 526.176C1025.75 526.176 1026.44 525.968 1026.91 525.552C1027.39 525.136 1027.76 524.656 1028.01 524.112L1030.05 525.168C1029.83 525.616 1029.5 526.088 1029.07 526.584C1028.65 527.08 1028.1 527.496 1027.41 527.832C1026.72 528.168 1025.84 528.336 1024.77 528.336ZM1021.32 520.872H1027.87C1027.8 519.976 1027.48 519.28 1026.91 518.784C1026.33 518.272 1025.58 518.016 1024.65 518.016C1023.72 518.016 1022.96 518.272 1022.37 518.784C1021.8 519.28 1021.44 519.976 1021.32 520.872ZM1033.36 528V516.168H1035.79V517.56H1036.17C1036.36 517.064 1036.67 516.704 1037.08 516.48C1037.52 516.24 1038.04 516.12 1038.67 516.12H1040.08V518.352H1038.57C1037.77 518.352 1037.12 518.576 1036.6 519.024C1036.09 519.456 1035.84 520.128 1035.84 521.04V528H1033.36ZM1045.99 528.336C1045.14 528.336 1044.38 528.192 1043.71 527.904C1043.05 527.616 1042.52 527.192 1042.12 526.632C1041.74 526.072 1041.55 525.392 1041.55 524.592C1041.55 523.776 1041.74 523.104 1042.12 522.576C1042.52 522.032 1043.06 521.624 1043.73 521.352C1044.42 521.08 1045.2 520.944 1046.06 520.944H1049.66V520.176C1049.66 519.488 1049.45 518.936 1049.04 518.52C1048.62 518.104 1047.98 517.896 1047.12 517.896C1046.27 517.896 1045.62 518.096 1045.17 518.496C1044.72 518.896 1044.43 519.416 1044.28 520.056L1041.98 519.312C1042.17 518.672 1042.48 518.096 1042.89 517.584C1043.32 517.056 1043.89 516.632 1044.6 516.312C1045.3 515.992 1046.15 515.832 1047.14 515.832C1048.68 515.832 1049.88 516.224 1050.76 517.008C1051.64 517.792 1052.08 518.904 1052.08 520.344V525.216C1052.08 525.696 1052.31 525.936 1052.76 525.936H1053.76V528H1051.92C1051.36 528 1050.9 527.856 1050.55 527.568C1050.2 527.28 1050.02 526.888 1050.02 526.392V526.32H1049.66C1049.53 526.56 1049.34 526.84 1049.08 527.16C1048.83 527.48 1048.45 527.76 1047.96 528C1047.46 528.224 1046.8 528.336 1045.99 528.336ZM1046.35 526.296C1047.34 526.296 1048.14 526.016 1048.75 525.456C1049.36 524.88 1049.66 524.096 1049.66 523.104V522.864H1046.2C1045.55 522.864 1045.02 523.008 1044.62 523.296C1044.22 523.568 1044.02 523.976 1044.02 524.52C1044.02 525.064 1044.23 525.496 1044.64 525.816C1045.06 526.136 1045.63 526.296 1046.35 526.296ZM1059.79 528C1059.07 528 1058.49 527.784 1058.06 527.352C1057.64 526.92 1057.44 526.344 1057.44 525.624V518.256H1054.17V516.168H1057.44V512.256H1059.91V516.168H1063.44V518.256H1059.91V525.192C1059.91 525.672 1060.13 525.912 1060.58 525.912H1063.05V528H1059.79ZM1066.34 528V516.168H1068.81V528H1066.34ZM1067.59 514.56C1067.11 514.56 1066.7 514.408 1066.36 514.104C1066.04 513.784 1065.88 513.376 1065.88 512.88C1065.88 512.384 1066.04 511.984 1066.36 511.68C1066.7 511.36 1067.11 511.2 1067.59 511.2C1068.08 511.2 1068.49 511.36 1068.81 511.68C1069.13 511.984 1069.29 512.384 1069.29 512.88C1069.29 513.376 1069.13 513.784 1068.81 514.104C1068.49 514.408 1068.08 514.56 1067.59 514.56ZM1078.02 528.336C1076.84 528.336 1075.78 528.096 1074.86 527.616C1073.94 527.12 1073.22 526.416 1072.7 525.504C1072.17 524.592 1071.9 523.512 1071.9 522.264V521.904C1071.9 520.656 1072.17 519.584 1072.7 518.688C1073.22 517.776 1073.94 517.072 1074.86 516.576C1075.78 516.08 1076.84 515.832 1078.02 515.832C1079.21 515.832 1080.26 516.08 1081.19 516.576C1082.12 517.072 1082.85 517.776 1083.38 518.688C1083.9 519.584 1084.17 520.656 1084.17 521.904V522.264C1084.17 523.512 1083.9 524.592 1083.38 525.504C1082.85 526.416 1082.12 527.12 1081.19 527.616C1080.26 528.096 1079.21 528.336 1078.02 528.336ZM1078.02 526.128C1079.11 526.128 1079.99 525.784 1080.66 525.096C1081.35 524.392 1081.7 523.424 1081.7 522.192V521.976C1081.7 520.744 1081.36 519.784 1080.69 519.096C1080.02 518.392 1079.13 518.04 1078.02 518.04C1076.95 518.04 1076.07 518.392 1075.38 519.096C1074.71 519.784 1074.38 520.744 1074.38 521.976V522.192C1074.38 523.424 1074.71 524.392 1075.38 525.096C1076.07 525.784 1076.95 526.128 1078.02 526.128ZM1087.25 528V516.168H1089.67V517.944H1090.05C1090.28 517.464 1090.68 517.016 1091.25 516.6C1091.83 516.184 1092.69 515.976 1093.82 515.976C1094.72 515.976 1095.51 516.176 1096.2 516.576C1096.9 516.976 1097.45 517.544 1097.85 518.28C1098.25 519 1098.45 519.872 1098.45 520.896V528H1095.98V521.088C1095.98 520.064 1095.73 519.312 1095.21 518.832C1094.7 518.336 1094 518.088 1093.1 518.088C1092.08 518.088 1091.25 518.424 1090.63 519.096C1090.02 519.768 1089.72 520.744 1089.72 522.024V528H1087.25ZM1106.86 528.336C1105.36 528.336 1104.11 528 1103.12 527.328C1102.12 526.656 1101.52 525.64 1101.29 524.28L1103.6 523.728C1103.72 524.384 1103.94 524.904 1104.24 525.288C1104.55 525.672 1104.92 525.944 1105.37 526.104C1105.84 526.264 1106.33 526.344 1106.86 526.344C1107.64 526.344 1108.24 526.192 1108.66 525.888C1109.09 525.584 1109.31 525.192 1109.31 524.712C1109.31 524.232 1109.11 523.88 1108.71 523.656C1108.31 523.432 1107.72 523.248 1106.93 523.104L1106.12 522.96C1105.32 522.816 1104.59 522.608 1103.93 522.336C1103.28 522.064 1102.76 521.688 1102.37 521.208C1101.99 520.728 1101.8 520.112 1101.8 519.36C1101.8 518.24 1102.21 517.376 1103.04 516.768C1103.88 516.144 1104.98 515.832 1106.36 515.832C1107.68 515.832 1108.77 516.136 1109.62 516.744C1110.48 517.336 1111.04 518.144 1111.3 519.168L1109 519.816C1108.85 519.096 1108.55 518.592 1108.08 518.304C1107.62 518 1107.04 517.848 1106.36 517.848C1105.68 517.848 1105.16 517.976 1104.77 518.232C1104.39 518.472 1104.2 518.816 1104.2 519.264C1104.2 519.744 1104.38 520.096 1104.75 520.32C1105.13 520.544 1105.64 520.712 1106.28 520.824L1107.12 520.968C1107.97 521.112 1108.75 521.312 1109.45 521.568C1110.16 521.824 1110.71 522.192 1111.11 522.672C1111.52 523.152 1111.73 523.792 1111.73 524.592C1111.73 525.776 1111.29 526.696 1110.41 527.352C1109.53 528.008 1108.35 528.336 1106.86 528.336ZM1124.72 528C1123.76 528 1122.91 527.824 1122.15 527.472C1121.42 527.12 1120.83 526.608 1120.4 525.936C1119.99 525.264 1119.78 524.456 1119.78 523.512C1119.78 522.808 1119.91 522.2 1120.16 521.688C1120.42 521.176 1120.76 520.752 1121.19 520.416C1121.64 520.064 1122.12 519.808 1122.63 519.648V519.336C1121.87 519.096 1121.22 518.68 1120.69 518.088C1120.16 517.496 1119.9 516.696 1119.9 515.688C1119.9 514.712 1120.11 513.896 1120.55 513.24C1120.99 512.568 1121.59 512.064 1122.32 511.728C1123.06 511.376 1123.89 511.2 1124.82 511.2H1127.65V513.288H1125.23C1124.43 513.288 1123.75 513.504 1123.21 513.936C1122.67 514.352 1122.39 515 1122.39 515.88C1122.39 516.488 1122.52 516.984 1122.78 517.368C1123.05 517.736 1123.39 518.016 1123.81 518.208C1124.24 518.384 1124.71 518.472 1125.23 518.472H1128.03V516.096H1130.51V518.472H1132.79V520.56H1130.51V528H1124.72ZM1125.13 525.912H1128.03V520.56H1125.13C1124.33 520.56 1123.65 520.784 1123.09 521.232C1122.53 521.664 1122.25 522.336 1122.25 523.248C1122.25 524.16 1122.54 524.832 1123.11 525.264C1123.69 525.696 1124.36 525.912 1125.13 525.912ZM1140.5 528V525.696H1142.76V513.504H1140.5V511.2H1147.22C1149.46 511.2 1151.18 511.768 1152.36 512.904C1153.56 514.04 1154.16 515.752 1154.16 518.04V521.184C1154.16 523.472 1153.56 525.184 1152.36 526.32C1151.18 527.44 1149.46 528 1147.22 528H1140.5ZM1145.38 525.648H1147.25C1148.7 525.648 1149.78 525.28 1150.49 524.544C1151.19 523.808 1151.54 522.712 1151.54 521.256V517.944C1151.54 516.472 1151.19 515.376 1150.49 514.656C1149.78 513.936 1148.7 513.576 1147.25 513.576H1145.38V525.648ZM1162.58 528.336C1161.38 528.336 1160.34 528.088 1159.44 527.592C1158.54 527.08 1157.84 526.368 1157.33 525.456C1156.83 524.528 1156.58 523.456 1156.58 522.24V521.952C1156.58 520.72 1156.83 519.648 1157.33 518.736C1157.82 517.808 1158.51 517.096 1159.39 516.6C1160.29 516.088 1161.32 515.832 1162.49 515.832C1163.62 515.832 1164.62 516.088 1165.46 516.6C1166.33 517.096 1167 517.792 1167.48 518.688C1167.96 519.584 1168.2 520.632 1168.2 521.832V522.768H1159.1C1159.14 523.808 1159.48 524.64 1160.14 525.264C1160.81 525.872 1161.64 526.176 1162.63 526.176C1163.56 526.176 1164.26 525.968 1164.72 525.552C1165.2 525.136 1165.57 524.656 1165.82 524.112L1167.86 525.168C1167.64 525.616 1167.31 526.088 1166.88 526.584C1166.46 527.08 1165.91 527.496 1165.22 527.832C1164.54 528.168 1163.66 528.336 1162.58 528.336ZM1159.13 520.872H1165.68C1165.62 519.976 1165.3 519.28 1164.72 518.784C1164.14 518.272 1163.39 518.016 1162.46 518.016C1161.54 518.016 1160.78 518.272 1160.18 518.784C1159.61 519.28 1159.26 519.976 1159.13 520.872ZM1173.49 528L1169.51 516.168H1172.12L1175.27 526.176H1175.65L1178.79 516.168H1181.41L1177.43 528H1173.49ZM1188.81 528.336C1187.61 528.336 1186.56 528.088 1185.67 527.592C1184.77 527.08 1184.07 526.368 1183.55 525.456C1183.06 524.528 1182.81 523.456 1182.81 522.24V521.952C1182.81 520.72 1183.06 519.648 1183.55 518.736C1184.05 517.808 1184.74 517.096 1185.62 516.6C1186.51 516.088 1187.55 515.832 1188.71 515.832C1189.85 515.832 1190.84 516.088 1191.69 516.6C1192.55 517.096 1193.23 517.792 1193.71 518.688C1194.19 519.584 1194.43 520.632 1194.43 521.832V522.768H1185.33C1185.36 523.808 1185.71 524.64 1186.36 525.264C1187.03 525.872 1187.87 526.176 1188.86 526.176C1189.79 526.176 1190.48 525.968 1190.95 525.552C1191.43 525.136 1191.79 524.656 1192.05 524.112L1194.09 525.168C1193.87 525.616 1193.54 526.088 1193.11 526.584C1192.69 527.08 1192.14 527.496 1191.45 527.832C1190.76 528.168 1189.88 528.336 1188.81 528.336ZM1185.35 520.872H1191.91C1191.84 519.976 1191.52 519.28 1190.95 518.784C1190.37 518.272 1189.62 518.016 1188.69 518.016C1187.76 518.016 1187 518.272 1186.41 518.784C1185.83 519.28 1185.48 519.976 1185.35 520.872ZM1197.4 528V511.2H1199.87V528H1197.4ZM1209.09 528.336C1207.9 528.336 1206.85 528.096 1205.92 527.616C1205.01 527.12 1204.29 526.416 1203.76 525.504C1203.23 524.592 1202.97 523.512 1202.97 522.264V521.904C1202.97 520.656 1203.23 519.584 1203.76 518.688C1204.29 517.776 1205.01 517.072 1205.92 516.576C1206.85 516.08 1207.9 515.832 1209.09 515.832C1210.27 515.832 1211.33 516.08 1212.25 516.576C1213.18 517.072 1213.91 517.776 1214.44 518.688C1214.97 519.584 1215.23 520.656 1215.23 521.904V522.264C1215.23 523.512 1214.97 524.592 1214.44 525.504C1213.91 526.416 1213.18 527.12 1212.25 527.616C1211.33 528.096 1210.27 528.336 1209.09 528.336ZM1209.09 526.128C1210.17 526.128 1211.05 525.784 1211.73 525.096C1212.41 524.392 1212.76 523.424 1212.76 522.192V521.976C1212.76 520.744 1212.42 519.784 1211.75 519.096C1211.08 518.392 1210.19 518.04 1209.09 518.04C1208.01 518.04 1207.13 518.392 1206.45 519.096C1205.77 519.784 1205.44 520.744 1205.44 521.976V522.192C1205.44 523.424 1205.77 524.392 1206.45 525.096C1207.13 525.784 1208.01 526.128 1209.09 526.128ZM1218.31 532.8V516.168H1220.73V517.872H1221.12C1221.42 517.344 1221.88 516.872 1222.48 516.456C1223.11 516.04 1224 515.832 1225.15 515.832C1226.14 515.832 1227.04 516.072 1227.86 516.552C1228.69 517.032 1229.36 517.728 1229.85 518.64C1230.36 519.536 1230.62 520.624 1230.62 521.904V522.264C1230.62 523.544 1230.37 524.64 1229.88 525.552C1229.38 526.448 1228.72 527.136 1227.88 527.616C1227.05 528.096 1226.14 528.336 1225.15 528.336C1224.38 528.336 1223.73 528.24 1223.2 528.048C1222.68 527.856 1222.25 527.616 1221.93 527.328C1221.61 527.024 1221.36 526.712 1221.16 526.392H1220.78V532.8H1218.31ZM1224.43 526.176C1225.52 526.176 1226.4 525.832 1227.09 525.144C1227.78 524.456 1228.12 523.472 1228.12 522.192V521.976C1228.12 520.712 1227.77 519.736 1227.07 519.048C1226.38 518.36 1225.5 518.016 1224.43 518.016C1223.37 518.016 1222.49 518.36 1221.79 519.048C1221.1 519.736 1220.76 520.712 1220.76 521.976V522.192C1220.76 523.472 1221.1 524.456 1221.79 525.144C1222.49 525.832 1223.37 526.176 1224.43 526.176ZM1233.68 528V516.168H1236.11V517.56H1236.49C1236.72 517.144 1237.08 516.776 1237.57 516.456C1238.07 516.136 1238.74 515.976 1239.59 515.976C1240.47 515.976 1241.17 516.16 1241.7 516.528C1242.24 516.88 1242.65 517.336 1242.92 517.896H1243.31C1243.58 517.352 1243.97 516.896 1244.48 516.528C1245.01 516.16 1245.76 515.976 1246.72 515.976C1247.48 515.976 1248.16 516.136 1248.76 516.456C1249.35 516.76 1249.82 517.224 1250.17 517.848C1250.52 518.456 1250.7 519.216 1250.7 520.128V528H1248.23V520.32C1248.23 519.6 1248.03 519.048 1247.63 518.664C1247.24 518.264 1246.69 518.064 1245.97 518.064C1245.2 518.064 1244.59 518.312 1244.12 518.808C1243.66 519.304 1243.43 520.016 1243.43 520.944V528H1240.96V520.32C1240.96 519.6 1240.76 519.048 1240.36 518.664C1239.97 518.264 1239.42 518.064 1238.7 518.064C1237.93 518.064 1237.32 518.312 1236.85 518.808C1236.39 519.304 1236.16 520.016 1236.16 520.944V528H1233.68ZM1259.69 528.336C1258.49 528.336 1257.44 528.088 1256.54 527.592C1255.65 527.08 1254.94 526.368 1254.43 525.456C1253.93 524.528 1253.69 523.456 1253.69 522.24V521.952C1253.69 520.72 1253.93 519.648 1254.43 518.736C1254.93 517.808 1255.61 517.096 1256.49 516.6C1257.39 516.088 1258.42 515.832 1259.59 515.832C1260.73 515.832 1261.72 516.088 1262.57 516.6C1263.43 517.096 1264.1 517.792 1264.58 518.688C1265.06 519.584 1265.3 520.632 1265.3 521.832V522.768H1256.21C1256.24 523.808 1256.58 524.64 1257.24 525.264C1257.91 525.872 1258.74 526.176 1259.73 526.176C1260.66 526.176 1261.36 525.968 1261.82 525.552C1262.3 525.136 1262.67 524.656 1262.93 524.112L1264.97 525.168C1264.74 525.616 1264.41 526.088 1263.98 526.584C1263.57 527.08 1263.01 527.496 1262.33 527.832C1261.64 528.168 1260.76 528.336 1259.69 528.336ZM1256.23 520.872H1262.78C1262.72 519.976 1262.4 519.28 1261.82 518.784C1261.25 518.272 1260.49 518.016 1259.57 518.016C1258.64 518.016 1257.88 518.272 1257.29 518.784C1256.71 519.28 1256.36 519.976 1256.23 520.872ZM1268.28 528V516.168H1270.7V517.944H1271.09C1271.31 517.464 1271.71 517.016 1272.29 516.6C1272.86 516.184 1273.72 515.976 1274.85 515.976C1275.75 515.976 1276.54 516.176 1277.23 516.576C1277.93 516.976 1278.49 517.544 1278.89 518.28C1279.29 519 1279.49 519.872 1279.49 520.896V528H1277.01V521.088C1277.01 520.064 1276.76 519.312 1276.25 518.832C1275.73 518.336 1275.03 518.088 1274.13 518.088C1273.11 518.088 1272.29 518.424 1271.66 519.096C1271.05 519.768 1270.75 520.744 1270.75 522.024V528H1268.28ZM1287.15 528C1286.43 528 1285.86 527.784 1285.43 527.352C1285.01 526.92 1284.8 526.344 1284.8 525.624V518.256H1281.54V516.168H1284.8V512.256H1287.27V516.168H1290.8V518.256H1287.27V525.192C1287.27 525.672 1287.5 525.912 1287.95 525.912H1290.42V528H1287.15Z" fill="url(#paint10_linear_128_481)"/>
<path d="M984.752 694V677.2H989.624L993.296 692.272H993.68L997.352 677.2H1002.22V694H999.704V679.024H999.32L995.672 694H991.304L987.656 679.024H987.272V694H984.752ZM1009.47 694.336C1008.62 694.336 1007.86 694.192 1007.19 693.904C1006.54 693.616 1006.01 693.192 1005.61 692.632C1005.22 692.072 1005.03 691.392 1005.03 690.592C1005.03 689.776 1005.22 689.104 1005.61 688.576C1006.01 688.032 1006.54 687.624 1007.22 687.352C1007.9 687.08 1008.68 686.944 1009.54 686.944H1013.14V686.176C1013.14 685.488 1012.94 684.936 1012.52 684.52C1012.1 684.104 1011.46 683.896 1010.6 683.896C1009.75 683.896 1009.1 684.096 1008.66 684.496C1008.21 684.896 1007.91 685.416 1007.77 686.056L1005.46 685.312C1005.66 684.672 1005.96 684.096 1006.38 683.584C1006.81 683.056 1007.38 682.632 1008.08 682.312C1008.78 681.992 1009.63 681.832 1010.62 681.832C1012.16 681.832 1013.37 682.224 1014.25 683.008C1015.13 683.792 1015.57 684.904 1015.57 686.344V691.216C1015.57 691.696 1015.79 691.936 1016.24 691.936H1017.25V694H1015.4C1014.84 694 1014.38 693.856 1014.03 693.568C1013.68 693.28 1013.5 692.888 1013.5 692.392V692.32H1013.14C1013.02 692.56 1012.82 692.84 1012.57 693.16C1012.31 693.48 1011.94 693.76 1011.44 694C1010.94 694.224 1010.29 694.336 1009.47 694.336ZM1009.83 692.296C1010.82 692.296 1011.62 692.016 1012.23 691.456C1012.84 690.88 1013.14 690.096 1013.14 689.104V688.864H1009.69C1009.03 688.864 1008.5 689.008 1008.1 689.296C1007.7 689.568 1007.5 689.976 1007.5 690.52C1007.5 691.064 1007.71 691.496 1008.13 691.816C1008.54 692.136 1009.11 692.296 1009.83 692.296ZM1019.65 694V682.168H1022.08V683.56H1022.46C1022.65 683.064 1022.96 682.704 1023.37 682.48C1023.8 682.24 1024.33 682.12 1024.96 682.12H1026.37V684.352H1024.86C1024.06 684.352 1023.4 684.576 1022.89 685.024C1022.38 685.456 1022.12 686.128 1022.12 687.04V694H1019.65ZM1028.93 694V677.2H1031.41V686.776H1031.79L1036.45 682.168H1039.73L1033.76 687.904L1039.93 694H1036.66L1031.79 689.08H1031.41V694H1028.93ZM1046.9 694.336C1045.7 694.336 1044.65 694.088 1043.75 693.592C1042.86 693.08 1042.15 692.368 1041.64 691.456C1041.14 690.528 1040.9 689.456 1040.9 688.24V687.952C1040.9 686.72 1041.14 685.648 1041.64 684.736C1042.14 683.808 1042.82 683.096 1043.7 682.6C1044.6 682.088 1045.63 681.832 1046.8 681.832C1047.94 681.832 1048.93 682.088 1049.78 682.6C1050.64 683.096 1051.31 683.792 1051.79 684.688C1052.27 685.584 1052.51 686.632 1052.51 687.832V688.768H1043.42C1043.45 689.808 1043.79 690.64 1044.45 691.264C1045.12 691.872 1045.95 692.176 1046.94 692.176C1047.87 692.176 1048.57 691.968 1049.03 691.552C1049.51 691.136 1049.88 690.656 1050.14 690.112L1052.18 691.168C1051.95 691.616 1051.62 692.088 1051.19 692.584C1050.78 693.08 1050.22 693.496 1049.54 693.832C1048.85 694.168 1047.97 694.336 1046.9 694.336ZM1043.44 686.872H1049.99C1049.93 685.976 1049.61 685.28 1049.03 684.784C1048.46 684.272 1047.7 684.016 1046.78 684.016C1045.85 684.016 1045.09 684.272 1044.5 684.784C1043.92 685.28 1043.57 685.976 1043.44 686.872ZM1059.48 694C1058.76 694 1058.19 693.784 1057.75 693.352C1057.34 692.92 1057.13 692.344 1057.13 691.624V684.256H1053.87V682.168H1057.13V678.256H1059.6V682.168H1063.13V684.256H1059.6V691.192C1059.6 691.672 1059.83 691.912 1060.27 691.912H1062.75V694H1059.48ZM1066.03 694V682.168H1068.51V694H1066.03ZM1067.28 680.56C1066.8 680.56 1066.39 680.408 1066.06 680.104C1065.74 679.784 1065.58 679.376 1065.58 678.88C1065.58 678.384 1065.74 677.984 1066.06 677.68C1066.39 677.36 1066.8 677.2 1067.28 677.2C1067.78 677.2 1068.19 677.36 1068.51 677.68C1068.83 677.984 1068.99 678.384 1068.99 678.88C1068.99 679.376 1068.83 679.784 1068.51 680.104C1068.19 680.408 1067.78 680.56 1067.28 680.56ZM1072.18 694V682.168H1074.6V683.944H1074.98C1075.21 683.464 1075.61 683.016 1076.18 682.6C1076.76 682.184 1077.62 681.976 1078.75 681.976C1079.65 681.976 1080.44 682.176 1081.13 682.576C1081.83 682.976 1082.38 683.544 1082.78 684.28C1083.18 685 1083.38 685.872 1083.38 686.896V694H1080.91V687.088C1080.91 686.064 1080.66 685.312 1080.14 684.832C1079.63 684.336 1078.93 684.088 1078.03 684.088C1077.01 684.088 1076.18 684.424 1075.56 685.096C1074.95 685.768 1074.65 686.744 1074.65 688.024V694H1072.18ZM1086.37 688.144V687.784C1086.37 686.536 1086.61 685.472 1087.11 684.592C1087.62 683.712 1088.29 683.032 1089.13 682.552C1089.96 682.072 1090.87 681.832 1091.86 681.832C1093.01 681.832 1093.89 682.048 1094.5 682.48C1095.13 682.912 1095.58 683.376 1095.87 683.872H1096.25V682.168H1098.65V696.424C1098.65 697.144 1098.44 697.72 1098.01 698.152C1097.59 698.584 1097.01 698.8 1096.28 698.8H1088.31V696.64H1095.51C1095.97 696.64 1096.21 696.4 1096.21 695.92V692.152H1095.82C1095.65 692.44 1095.4 692.736 1095.08 693.04C1094.76 693.344 1094.33 693.592 1093.81 693.784C1093.29 693.976 1092.65 694.072 1091.86 694.072C1090.87 694.072 1089.95 693.84 1089.1 693.376C1088.27 692.896 1087.61 692.216 1087.11 691.336C1086.61 690.44 1086.37 689.376 1086.37 688.144ZM1092.53 691.912C1093.61 691.912 1094.49 691.576 1095.17 690.904C1095.88 690.216 1096.23 689.272 1096.23 688.072V687.856C1096.23 686.624 1095.89 685.68 1095.2 685.024C1094.51 684.352 1093.62 684.016 1092.53 684.016C1091.48 684.016 1090.6 684.352 1089.89 685.024C1089.21 685.68 1088.86 686.624 1088.86 687.856V688.072C1088.86 689.272 1089.21 690.216 1089.89 690.904C1090.6 691.576 1091.48 691.912 1092.53 691.912Z" fill="url(#paint11_linear_128_481)"/>
<path d="M899.024 903V901.4C899.024 899.779 899.152 898.435 899.408 897.368C899.664 896.259 900.197 894.979 901.008 893.528L917.008 865.048V864.216H891.856V858.2H923.984V866.136L907.152 896.344C906.64 897.283 906.277 898.136 906.064 898.904C905.851 899.629 905.744 900.547 905.744 901.656V903H899.024ZM934.774 903.832L930.678 900.504L965.686 857.368L969.782 860.696L934.774 903.832ZM962.486 903.704C959.329 903.704 956.833 902.829 954.998 901.08C953.163 899.288 952.246 896.877 952.246 893.848V893.464C952.246 890.392 953.163 887.981 954.998 886.232C956.833 884.44 959.329 883.544 962.486 883.544C965.601 883.544 968.097 884.44 969.974 886.232C971.851 887.981 972.79 890.392 972.79 893.464V893.848C972.79 896.877 971.851 899.288 969.974 901.08C968.139 902.829 965.643 903.704 962.486 903.704ZM962.486 899.224C964.022 899.224 965.217 898.755 966.07 897.816C966.966 896.877 967.414 895.64 967.414 894.104V893.208C967.414 891.629 966.966 890.371 966.07 889.432C965.217 888.493 964.022 888.024 962.486 888.024C960.993 888.024 959.798 888.493 958.902 889.432C958.049 890.371 957.622 891.629 957.622 893.208V894.104C957.622 895.64 958.049 896.877 958.902 897.816C959.798 898.755 960.993 899.224 962.486 899.224ZM937.974 877.656C934.817 877.656 932.299 876.781 930.422 875.032C928.587 873.24 927.67 870.829 927.67 867.8V867.352C927.67 864.28 928.587 861.869 930.422 860.12C932.299 858.371 934.817 857.496 937.974 857.496C941.089 857.496 943.563 858.371 945.398 860.12C947.275 861.869 948.214 864.28 948.214 867.352V867.8C948.214 870.829 947.297 873.24 945.462 875.032C943.627 876.781 941.131 877.656 937.974 877.656ZM937.974 873.176C939.467 873.176 940.641 872.707 941.494 871.768C942.39 870.787 942.838 869.528 942.838 867.992V867.096C942.838 865.56 942.39 864.323 941.494 863.384C940.641 862.445 939.467 861.976 937.974 861.976C936.438 861.976 935.222 862.445 934.326 863.384C933.473 864.323 933.046 865.56 933.046 867.096V867.992C933.046 869.528 933.473 870.787 934.326 871.768C935.222 872.707 936.438 873.176 937.974 873.176Z" fill="url(#paint12_linear_128_481)"/>
<path d="M891.752 968V951.2H902.336V953.552H894.344V958.376H901.664V960.728H894.344V965.648H902.456V968H891.752ZM910.726 968.336C909.59 968.336 908.558 968.096 907.63 967.616C906.718 967.136 905.99 966.44 905.446 965.528C904.918 964.616 904.654 963.52 904.654 962.24V961.928C904.654 960.648 904.918 959.56 905.446 958.664C905.99 957.752 906.718 957.056 907.63 956.576C908.558 956.08 909.59 955.832 910.726 955.832C911.862 955.832 912.83 956.04 913.63 956.456C914.43 956.872 915.07 957.424 915.55 958.112C916.046 958.8 916.366 959.56 916.51 960.392L914.11 960.896C914.03 960.368 913.862 959.888 913.606 959.456C913.35 959.024 912.99 958.68 912.526 958.424C912.062 958.168 911.478 958.04 910.774 958.04C910.086 958.04 909.462 958.2 908.902 958.52C908.358 958.824 907.926 959.272 907.606 959.864C907.286 960.44 907.126 961.144 907.126 961.976V962.192C907.126 963.024 907.286 963.736 907.606 964.328C907.926 964.92 908.358 965.368 908.902 965.672C909.462 965.976 910.086 966.128 910.774 966.128C911.814 966.128 912.606 965.864 913.15 965.336C913.694 964.792 914.038 964.104 914.182 963.272L916.582 963.824C916.39 964.64 916.046 965.392 915.55 966.08C915.07 966.768 914.43 967.32 913.63 967.736C912.83 968.136 911.862 968.336 910.726 968.336ZM924.977 968.336C923.793 968.336 922.737 968.096 921.809 967.616C920.897 967.12 920.177 966.416 919.649 965.504C919.121 964.592 918.857 963.512 918.857 962.264V961.904C918.857 960.656 919.121 959.584 919.649 958.688C920.177 957.776 920.897 957.072 921.809 956.576C922.737 956.08 923.793 955.832 924.977 955.832C926.161 955.832 927.217 956.08 928.145 956.576C929.073 957.072 929.801 957.776 930.329 958.688C930.857 959.584 931.121 960.656 931.121 961.904V962.264C931.121 963.512 930.857 964.592 930.329 965.504C929.801 966.416 929.073 967.12 928.145 967.616C927.217 968.096 926.161 968.336 924.977 968.336ZM924.977 966.128C926.065 966.128 926.945 965.784 927.617 965.096C928.305 964.392 928.649 963.424 928.649 962.192V961.976C928.649 960.744 928.313 959.784 927.641 959.096C926.969 958.392 926.081 958.04 924.977 958.04C923.905 958.04 923.025 958.392 922.337 959.096C921.665 959.784 921.329 960.744 921.329 961.976V962.192C921.329 963.424 921.665 964.392 922.337 965.096C923.025 965.784 923.905 966.128 924.977 966.128ZM939.047 968.336C937.543 968.336 936.295 968 935.303 967.328C934.311 966.656 933.703 965.64 933.479 964.28L935.783 963.728C935.911 964.384 936.127 964.904 936.431 965.288C936.735 965.672 937.111 965.944 937.559 966.104C938.023 966.264 938.519 966.344 939.047 966.344C939.831 966.344 940.431 966.192 940.847 965.888C941.279 965.584 941.495 965.192 941.495 964.712C941.495 964.232 941.295 963.88 940.895 963.656C940.495 963.432 939.903 963.248 939.119 963.104L938.303 962.96C937.503 962.816 936.775 962.608 936.119 962.336C935.463 962.064 934.943 961.688 934.559 961.208C934.175 960.728 933.983 960.112 933.983 959.36C933.983 958.24 934.399 957.376 935.231 956.768C936.063 956.144 937.167 955.832 938.543 955.832C939.871 955.832 940.959 956.136 941.807 956.744C942.671 957.336 943.231 958.144 943.487 959.168L941.183 959.816C941.039 959.096 940.735 958.592 940.271 958.304C939.807 958 939.231 957.848 938.543 957.848C937.871 957.848 937.343 957.976 936.959 958.232C936.575 958.472 936.383 958.816 936.383 959.264C936.383 959.744 936.567 960.096 936.935 960.32C937.319 960.544 937.831 960.712 938.471 960.824L939.311 960.968C940.159 961.112 940.935 961.312 941.639 961.568C942.343 961.824 942.895 962.192 943.295 962.672C943.711 963.152 943.919 963.792 943.919 964.592C943.919 965.776 943.479 966.696 942.599 967.352C941.719 968.008 940.535 968.336 939.047 968.336ZM948.176 972.8V970.64H954.776C955.224 970.64 955.448 970.4 955.448 969.92V966.272H955.064C954.92 966.592 954.696 966.904 954.392 967.208C954.104 967.496 953.712 967.736 953.216 967.928C952.72 968.12 952.096 968.216 951.344 968.216C950.448 968.216 949.648 968.016 948.944 967.616C948.24 967.216 947.688 966.648 947.288 965.912C946.888 965.176 946.688 964.304 946.688 963.296V956.168H949.16V963.104C949.16 964.128 949.416 964.888 949.928 965.384C950.44 965.864 951.152 966.104 952.064 966.104C953.072 966.104 953.88 965.768 954.488 965.096C955.112 964.424 955.424 963.448 955.424 962.168V956.168H957.896V970.424C957.896 971.144 957.68 971.72 957.248 972.152C956.832 972.584 956.256 972.8 955.52 972.8H948.176ZM966.399 968.336C964.895 968.336 963.647 968 962.655 967.328C961.663 966.656 961.055 965.64 960.831 964.28L963.135 963.728C963.263 964.384 963.479 964.904 963.783 965.288C964.087 965.672 964.463 965.944 964.911 966.104C965.375 966.264 965.871 966.344 966.399 966.344C967.183 966.344 967.783 966.192 968.199 965.888C968.631 965.584 968.847 965.192 968.847 964.712C968.847 964.232 968.647 963.88 968.247 963.656C967.847 963.432 967.255 963.248 966.471 963.104L965.655 962.96C964.855 962.816 964.127 962.608 963.471 962.336C962.815 962.064 962.295 961.688 961.911 961.208C961.527 960.728 961.335 960.112 961.335 959.36C961.335 958.24 961.751 957.376 962.583 956.768C963.415 956.144 964.519 955.832 965.895 955.832C967.223 955.832 968.311 956.136 969.159 956.744C970.023 957.336 970.583 958.144 970.839 959.168L968.535 959.816C968.391 959.096 968.087 958.592 967.623 958.304C967.159 958 966.583 957.848 965.895 957.848C965.223 957.848 964.695 957.976 964.311 958.232C963.927 958.472 963.735 958.816 963.735 959.264C963.735 959.744 963.919 960.096 964.287 960.32C964.671 960.544 965.183 960.712 965.823 960.824L966.663 960.968C967.511 961.112 968.287 961.312 968.991 961.568C969.695 961.824 970.247 962.192 970.647 962.672C971.063 963.152 971.271 963.792 971.271 964.592C971.271 965.776 970.831 966.696 969.951 967.352C969.071 968.008 967.887 968.336 966.399 968.336ZM978.342 968C977.622 968 977.046 967.784 976.614 967.352C976.198 966.92 975.99 966.344 975.99 965.624V958.256H972.726V956.168H975.99V952.256H978.462V956.168H981.99V958.256H978.462V965.192C978.462 965.672 978.686 965.912 979.134 965.912H981.606V968H978.342ZM989.896 968.336C988.696 968.336 987.648 968.088 986.752 967.592C985.856 967.08 985.152 966.368 984.64 965.456C984.144 964.528 983.896 963.456 983.896 962.24V961.952C983.896 960.72 984.144 959.648 984.64 958.736C985.136 957.808 985.824 957.096 986.704 956.6C987.6 956.088 988.632 955.832 989.8 955.832C990.936 955.832 991.928 956.088 992.776 956.6C993.64 957.096 994.312 957.792 994.792 958.688C995.272 959.584 995.512 960.632 995.512 961.832V962.768H986.416C986.448 963.808 986.792 964.64 987.448 965.264C988.12 965.872 988.952 966.176 989.944 966.176C990.872 966.176 991.568 965.968 992.032 965.552C992.512 965.136 992.88 964.656 993.136 964.112L995.176 965.168C994.952 965.616 994.624 966.088 994.192 966.584C993.776 967.08 993.224 967.496 992.536 967.832C991.848 968.168 990.968 968.336 989.896 968.336ZM986.44 960.872H992.992C992.928 959.976 992.608 959.28 992.032 958.784C991.456 958.272 990.704 958.016 989.776 958.016C988.848 958.016 988.088 958.272 987.496 958.784C986.92 959.28 986.568 959.976 986.44 960.872ZM998.488 968V956.168H1000.91V957.56H1001.3C1001.52 957.144 1001.88 956.776 1002.38 956.456C1002.87 956.136 1003.54 955.976 1004.39 955.976C1005.27 955.976 1005.98 956.16 1006.5 956.528C1007.05 956.88 1007.46 957.336 1007.73 957.896H1008.11C1008.38 957.352 1008.78 956.896 1009.29 956.528C1009.82 956.16 1010.56 955.976 1011.52 955.976C1012.29 955.976 1012.97 956.136 1013.56 956.456C1014.15 956.76 1014.62 957.224 1014.98 957.848C1015.33 958.456 1015.5 959.216 1015.5 960.128V968H1013.03V960.32C1013.03 959.6 1012.83 959.048 1012.43 958.664C1012.05 958.264 1011.5 958.064 1010.78 958.064C1010.01 958.064 1009.39 958.312 1008.93 958.808C1008.46 959.304 1008.23 960.016 1008.23 960.944V968H1005.76V960.32C1005.76 959.6 1005.56 959.048 1005.16 958.664C1004.78 958.264 1004.22 958.064 1003.5 958.064C1002.74 958.064 1002.12 958.312 1001.66 958.808C1001.19 959.304 1000.96 960.016 1000.96 960.944V968H998.488Z" fill="url(#paint13_linear_128_481)"/>
<path d="M36.448 885V844.936H35.424L28.064 860.04H20.96L30.88 840.2H43.168V885H36.448ZM68.4205 885.896C63.2152 885.896 59.0552 884.424 55.9405 881.48C52.8685 878.493 51.3325 874.013 51.3325 868.04V857.16C51.3325 851.315 52.8685 846.877 55.9405 843.848C59.0552 840.819 63.2152 839.304 68.4205 839.304C73.6685 839.304 77.8285 840.819 80.9005 843.848C84.0152 846.877 85.5725 851.315 85.5725 857.16V868.04C85.5725 874.013 84.0152 878.493 80.9005 881.48C77.8285 884.424 73.6685 885.896 68.4205 885.896ZM68.4205 879.88C71.9618 879.88 74.5858 878.877 76.2925 876.872C77.9992 874.824 78.8525 871.965 78.8525 868.296V856.776C78.8525 853.107 77.9352 850.291 76.1005 848.328C74.2658 846.323 71.7058 845.32 68.4205 845.32C65.0925 845.32 62.5325 846.344 60.7405 848.392C58.9485 850.397 58.0525 853.192 58.0525 856.776V868.296C58.0525 872.051 58.9058 874.931 60.6125 876.936C62.3618 878.899 64.9645 879.88 68.4205 879.88ZM98.0865 885.832L93.9905 882.504L128.999 839.368L133.095 842.696L98.0865 885.832ZM125.799 885.704C122.641 885.704 120.145 884.829 118.311 883.08C116.476 881.288 115.559 878.877 115.559 875.848V875.464C115.559 872.392 116.476 869.981 118.311 868.232C120.145 866.44 122.641 865.544 125.799 865.544C128.913 865.544 131.409 866.44 133.287 868.232C135.164 869.981 136.103 872.392 136.103 875.464V875.848C136.103 878.877 135.164 881.288 133.287 883.08C131.452 884.829 128.956 885.704 125.799 885.704ZM125.799 881.224C127.335 881.224 128.529 880.755 129.383 879.816C130.279 878.877 130.727 877.64 130.727 876.104V875.208C130.727 873.629 130.279 872.371 129.383 871.432C128.529 870.493 127.335 870.024 125.799 870.024C124.305 870.024 123.111 870.493 122.215 871.432C121.361 872.371 120.935 873.629 120.935 875.208V876.104C120.935 877.64 121.361 878.877 122.215 879.816C123.111 880.755 124.305 881.224 125.799 881.224ZM101.287 859.656C98.1292 859.656 95.6118 858.781 93.7345 857.032C91.8998 855.24 90.9825 852.829 90.9825 849.8V849.352C90.9825 846.28 91.8998 843.869 93.7345 842.12C95.6118 840.371 98.1292 839.496 101.287 839.496C104.401 839.496 106.876 840.371 108.711 842.12C110.588 843.869 111.527 846.28 111.527 849.352V849.8C111.527 852.829 110.609 855.24 108.775 857.032C106.94 858.781 104.444 859.656 101.287 859.656ZM101.287 855.176C102.78 855.176 103.953 854.707 104.807 853.768C105.703 852.787 106.151 851.528 106.151 849.992V849.096C106.151 847.56 105.703 846.323 104.807 845.384C103.953 844.445 102.78 843.976 101.287 843.976C99.7505 843.976 98.5345 844.445 97.6385 845.384C96.7852 846.323 96.3585 847.56 96.3585 849.096V849.992C96.3585 851.528 96.7852 852.787 97.6385 853.768C98.5345 854.707 99.7505 855.176 101.287 855.176Z" fill="url(#paint14_linear_128_481)"/>
<path d="M21.752 930V913.2H28.424C29.448 913.2 30.36 913.408 31.16 913.824C31.976 914.224 32.608 914.8 33.056 915.552C33.52 916.288 33.752 917.176 33.752 918.216V918.528C33.752 919.568 33.512 920.464 33.032 921.216C32.568 921.968 31.936 922.544 31.136 922.944C30.336 923.344 29.432 923.544 28.424 923.544H24.344V930H21.752ZM24.344 921.192H28.16C29.072 921.192 29.8 920.952 30.344 920.472C30.888 919.992 31.16 919.336 31.16 918.504V918.264C31.16 917.416 30.888 916.752 30.344 916.272C29.8 915.792 29.072 915.552 28.16 915.552H24.344V921.192ZM35.6129 930V928.104C35.6129 926.936 35.8129 925.976 36.2129 925.224C36.6129 924.472 37.1809 923.864 37.9169 923.4C38.6689 922.92 39.5729 922.52 40.6289 922.2L42.0929 921.744C42.7489 921.536 43.3089 921.28 43.7729 920.976C44.2529 920.672 44.6209 920.296 44.8769 919.848C45.1329 919.384 45.2609 918.848 45.2609 918.24V918.144C45.2609 917.2 44.9409 916.464 44.3009 915.936C43.6609 915.392 42.8209 915.12 41.7809 915.12C40.7089 915.12 39.8369 915.408 39.1649 915.984C38.5089 916.56 38.1809 917.408 38.1809 918.528V918.912H35.6849V918.552C35.6849 917.336 35.9489 916.312 36.4769 915.48C37.0049 914.632 37.7329 913.984 38.6609 913.536C39.5889 913.088 40.6289 912.864 41.7809 912.864C42.9329 912.864 43.9569 913.08 44.8529 913.512C45.7649 913.944 46.4769 914.552 46.9889 915.336C47.5169 916.12 47.7809 917.04 47.7809 918.096V918.312C47.7809 919.4 47.5649 920.304 47.1329 921.024C46.7009 921.744 46.1009 922.336 45.3329 922.8C44.5809 923.264 43.7089 923.656 42.7169 923.976L41.3009 924.408C40.5489 924.632 39.9409 924.88 39.4769 925.152C39.0289 925.408 38.6929 925.72 38.4689 926.088C38.2609 926.456 38.1569 926.928 38.1569 927.504V927.744H47.6369V930H35.6129ZM50.5567 930V913.2H61.1407V915.552H53.1487V920.376H60.4687V922.728H53.1487V927.648H61.2607V930H50.5567ZM70.0801 930V913.2H77.1361C78.1761 913.2 79.0881 913.384 79.8721 913.752C80.6721 914.104 81.2881 914.616 81.7201 915.288C82.1681 915.96 82.3921 916.76 82.3921 917.688V917.952C82.3921 919.008 82.1361 919.856 81.6241 920.496C81.1281 921.12 80.5201 921.56 79.8001 921.816V922.2C80.4081 922.232 80.8961 922.44 81.2641 922.824C81.6321 923.192 81.8161 923.728 81.8161 924.432V930H79.2001V924.792C79.2001 924.36 79.0881 924.016 78.8641 923.76C78.6401 923.504 78.2801 923.376 77.7841 923.376H72.6721V930H70.0801ZM72.6721 921.024H76.8481C77.7761 921.024 78.4961 920.792 79.0081 920.328C79.5201 919.848 79.7761 919.2 79.7761 918.384V918.192C79.7761 917.376 79.5201 916.736 79.0081 916.272C78.5121 915.792 77.7921 915.552 76.8481 915.552H72.6721V921.024ZM90.7402 930.336C89.5402 930.336 88.4922 930.088 87.5962 929.592C86.7002 929.08 85.9962 928.368 85.4842 927.456C84.9882 926.528 84.7402 925.456 84.7402 924.24V923.952C84.7402 922.72 84.9882 921.648 85.4842 920.736C85.9802 919.808 86.6682 919.096 87.5482 918.6C88.4442 918.088 89.4762 917.832 90.6442 917.832C91.7802 917.832 92.7722 918.088 93.6202 918.6C94.4842 919.096 95.1562 919.792 95.6362 920.688C96.1162 921.584 96.3562 922.632 96.3562 923.832V924.768H87.2602C87.2922 925.808 87.6362 926.64 88.2922 927.264C88.9642 927.872 89.7962 928.176 90.7882 928.176C91.7162 928.176 92.4122 927.968 92.8762 927.552C93.3562 927.136 93.7242 926.656 93.9802 926.112L96.0202 927.168C95.7962 927.616 95.4682 928.088 95.0362 928.584C94.6202 929.08 94.0682 929.496 93.3802 929.832C92.6922 930.168 91.8122 930.336 90.7402 930.336ZM87.2842 922.872H93.8362C93.7722 921.976 93.4522 921.28 92.8762 920.784C92.3002 920.272 91.5482 920.016 90.6202 920.016C89.6922 920.016 88.9322 920.272 88.3402 920.784C87.7642 921.28 87.4122 921.976 87.2842 922.872ZM100.487 930L98.4712 918.168H100.943L102.431 928.344H102.815L104.879 918.168H108.887L110.927 928.344H111.311L112.799 918.168H115.271L113.255 930H109.103L107.063 919.848H106.679L104.639 930H100.487ZM121.777 930.336C120.929 930.336 120.169 930.192 119.497 929.904C118.841 929.616 118.313 929.192 117.913 928.632C117.529 928.072 117.337 927.392 117.337 926.592C117.337 925.776 117.529 925.104 117.913 924.576C118.313 924.032 118.849 923.624 119.521 923.352C120.209 923.08 120.985 922.944 121.849 922.944H125.449V922.176C125.449 921.488 125.241 920.936 124.825 920.52C124.409 920.104 123.769 919.896 122.905 919.896C122.057 919.896 121.409 920.096 120.961 920.496C120.513 920.896 120.217 921.416 120.073 922.056L117.769 921.312C117.961 920.672 118.265 920.096 118.681 919.584C119.113 919.056 119.681 918.632 120.385 918.312C121.089 917.992 121.937 917.832 122.929 917.832C124.465 917.832 125.673 918.224 126.553 919.008C127.433 919.792 127.873 920.904 127.873 922.344V927.216C127.873 927.696 128.097 927.936 128.545 927.936H129.553V930H127.705C127.145 930 126.689 929.856 126.337 929.568C125.985 929.28 125.809 928.888 125.809 928.392V928.32H125.449C125.321 928.56 125.129 928.84 124.873 929.16C124.617 929.48 124.241 929.76 123.745 930C123.249 930.224 122.593 930.336 121.777 930.336ZM122.137 928.296C123.129 928.296 123.929 928.016 124.537 927.456C125.145 926.88 125.449 926.096 125.449 925.104V924.864H121.993C121.337 924.864 120.809 925.008 120.409 925.296C120.009 925.568 119.809 925.976 119.809 926.52C119.809 927.064 120.017 927.496 120.433 927.816C120.849 928.136 121.417 928.296 122.137 928.296ZM131.957 930V918.168H134.381V919.56H134.765C134.957 919.064 135.261 918.704 135.677 918.48C136.109 918.24 136.637 918.12 137.261 918.12H138.677V920.352H137.165C136.365 920.352 135.709 920.576 135.197 921.024C134.685 921.456 134.429 922.128 134.429 923.04V930H131.957ZM145.712 930.336C144.736 930.336 143.832 930.096 143 929.616C142.168 929.136 141.496 928.448 140.984 927.552C140.488 926.64 140.24 925.544 140.24 924.264V923.904C140.24 922.64 140.488 921.552 140.984 920.64C141.48 919.728 142.144 919.032 142.976 918.552C143.808 918.072 144.72 917.832 145.712 917.832C146.48 917.832 147.12 917.928 147.632 918.12C148.16 918.312 148.592 918.56 148.928 918.864C149.264 919.152 149.52 919.456 149.696 919.776H150.08V913.2H152.552V930H150.128V928.32H149.744C149.44 928.832 148.976 929.296 148.352 929.712C147.744 930.128 146.864 930.336 145.712 930.336ZM146.408 928.176C147.48 928.176 148.36 927.832 149.048 927.144C149.752 926.456 150.104 925.472 150.104 924.192V923.976C150.104 922.712 149.76 921.736 149.072 921.048C148.384 920.36 147.496 920.016 146.408 920.016C145.352 920.016 144.472 920.36 143.768 921.048C143.08 921.736 142.736 922.712 142.736 923.976V924.192C142.736 925.472 143.08 926.456 143.768 927.144C144.472 927.832 145.352 928.176 146.408 928.176ZM161.039 930.336C159.535 930.336 158.287 930 157.295 929.328C156.303 928.656 155.695 927.64 155.471 926.28L157.775 925.728C157.903 926.384 158.119 926.904 158.423 927.288C158.727 927.672 159.103 927.944 159.551 928.104C160.015 928.264 160.511 928.344 161.039 928.344C161.823 928.344 162.423 928.192 162.839 927.888C163.271 927.584 163.487 927.192 163.487 926.712C163.487 926.232 163.287 925.88 162.887 925.656C162.487 925.432 161.895 925.248 161.111 925.104L160.295 924.96C159.495 924.816 158.767 924.608 158.111 924.336C157.455 924.064 156.935 923.688 156.551 923.208C156.167 922.728 155.975 922.112 155.975 921.36C155.975 920.24 156.391 919.376 157.223 918.768C158.055 918.144 159.159 917.832 160.535 917.832C161.863 917.832 162.951 918.136 163.799 918.744C164.663 919.336 165.223 920.144 165.479 921.168L163.175 921.816C163.031 921.096 162.727 920.592 162.263 920.304C161.799 920 161.223 919.848 160.535 919.848C159.863 919.848 159.335 919.976 158.951 920.232C158.567 920.472 158.375 920.816 158.375 921.264C158.375 921.744 158.559 922.096 158.927 922.32C159.311 922.544 159.823 922.712 160.463 922.824L161.303 922.968C162.151 923.112 162.927 923.312 163.631 923.568C164.335 923.824 164.887 924.192 165.287 924.672C165.703 925.152 165.911 925.792 165.911 926.592C165.911 927.776 165.471 928.696 164.591 929.352C163.711 930.008 162.527 930.336 161.039 930.336Z" fill="url(#paint15_linear_128_481)"/>
<circle cx="291" cy="463" r="11" fill="white"/>
<path d="M292.5 462.5H3" stroke="white" stroke-width="4" stroke-linejoin="round"/>
<defs>
<filter id="filter0_d_128_481" x="175.451" y="132.451" width="776.098" height="776.098" filterUnits="userSpaceOnUse" color-interpolation-filters="sRGB">
<feFlood flood-opacity="0" result="BackgroundImageFix"/>
<feColorMatrix in="SourceAlpha" type="matrix" values="0 0 0 0 0 0 0 0 0 0 0 0 0 0 0 0 0 0 127 0" result="hardAlpha"/>
<feOffset/>
<feGaussianBlur stdDeviation="10"/>
<feColorMatrix type="matrix" values="0 0 0 0 0.875 0 0 0 0 0.309896 0 0 0 0 0.682865 0 0 0 0.21 0"/>
<feBlend mode="normal" in2="BackgroundImageFix" result="effect1_dropShadow_128_481"/>
<feBlend mode="normal" in="SourceGraphic" in2="effect1_dropShadow_128_481" result="shape"/>
</filter>
<filter id="filter1_d_128_481" x="387.451" y="344.451" width="352.662" height="352.662" filterUnits="userSpaceOnUse" color-interpolation-filters="sRGB">
<feFlood flood-opacity="0" result="BackgroundImageFix"/>
<feColorMatrix in="SourceAlpha" type="matrix" values="0 0 0 0 0 0 0 0 0 0 0 0 0 0 0 0 0 0 127 0" result="hardAlpha"/>
<feOffset/>
<feGaussianBlur stdDeviation="10"/>
<feColorMatrix type="matrix" values="0 0 0 0 0.239216 0 0 0 0 0.239216 0 0 0 0 0.239216 0 0 0 0.21 0"/>
<feBlend mode="normal" in2="BackgroundImageFix" result="effect1_dropShadow_128_481"/>
<feBlend mode="normal" in="SourceGraphic" in2="effect1_dropShadow_128_481" result="shape"/>
</filter>
<linearGradient id="paint0_linear_128_481" x1="369.655" y1="71.4157" x2="212.472" y2="-63.342" gradientUnits="userSpaceOnUse">
<stop stop-color="white"/>
<stop offset="1" stop-color="white" stop-opacity="0"/>
</linearGradient>
<linearGradient id="paint1_linear_128_481" x1="347.669" y1="114.73" x2="293.878" y2="27.7327" gradientUnits="userSpaceOnUse">
<stop stop-color="white"/>
<stop offset="1" stop-color="white" stop-opacity="0"/>
</linearGradient>
<linearGradient id="paint2_linear_128_481" x1="76.8723" y1="401.416" x2="-79.705" y2="270.299" gradientUnits="userSpaceOnUse">
<stop stop-color="white"/>
<stop offset="1" stop-color="white" stop-opacity="0"/>
</linearGradient>
<linearGradient id="paint3_linear_128_481" x1="52.2918" y1="639.416" x2="-86.3314" y2="558.343" gradientUnits="userSpaceOnUse">
<stop stop-color="white"/>
<stop offset="1" stop-color="white" stop-opacity="0"/>
</linearGradient>
<linearGradient id="paint4_linear_128_481" x1="31.117" y1="444.73" x2="-28.3484" y2="393.507" gradientUnits="userSpaceOnUse">
<stop stop-color="white"/>
<stop offset="1" stop-color="white" stop-opacity="0"/>
</linearGradient>
<linearGradient id="paint5_linear_128_481" x1="61.2052" y1="682.73" x2="10.313" y2="590.58" gradientUnits="userSpaceOnUse">
<stop stop-color="white"/>
<stop offset="1" stop-color="white" stop-opacity="0"/>
</linearGradient>
<linearGradient id="paint6_linear_128_481" x1="927.93" y1="217.416" x2="774.115" y2="98.8352" gradientUnits="userSpaceOnUse">
<stop stop-color="white"/>
<stop offset="1" stop-color="white" stop-opacity="0"/>
</linearGradient>
<linearGradient id="paint7_linear_128_481" x1="967.743" y1="260.73" x2="933.656" y2="151.069" gradientUnits="userSpaceOnUse">
<stop stop-color="white"/>
<stop offset="1" stop-color="white" stop-opacity="0"/>
</linearGradient>
<linearGradient id="paint8_linear_128_481" x1="1056.12" y1="485.416" x2="901.654" y2="364.282" gradientUnits="userSpaceOnUse">
<stop stop-color="white"/>
<stop offset="1" stop-color="white" stop-opacity="0"/>
</linearGradient>
<linearGradient id="paint9_linear_128_481" x1="1053.12" y1="651.416" x2="898.654" y2="530.282" gradientUnits="userSpaceOnUse">
<stop stop-color="white"/>
<stop offset="1" stop-color="white" stop-opacity="0"/>
</linearGradient>
<linearGradient id="paint10_linear_128_481" x1="1167.83" y1="528.73" x2="1146.22" y2="412.49" gradientUnits="userSpaceOnUse">
<stop stop-color="white"/>
<stop offset="1" stop-color="white" stop-opacity="0"/>
</linearGradient>
<linearGradient id="paint11_linear_128_481" x1="1053.12" y1="694.73" x2="1006.08" y2="597.15" gradientUnits="userSpaceOnUse">
<stop stop-color="white"/>
<stop offset="1" stop-color="white" stop-opacity="0"/>
</linearGradient>
<linearGradient id="paint12_linear_128_481" x1="940.509" y1="905.416" x2="804.285" y2="828.462" gradientUnits="userSpaceOnUse">
<stop stop-color="white"/>
<stop offset="1" stop-color="white" stop-opacity="0"/>
</linearGradient>
<linearGradient id="paint13_linear_128_481" x1="966.061" y1="968.73" x2="921.432" y2="868.307" gradientUnits="userSpaceOnUse">
<stop stop-color="white"/>
<stop offset="1" stop-color="white" stop-opacity="0"/>
</linearGradient>
<linearGradient id="paint14_linear_128_481" x1="90.1185" y1="887.416" x2="-64.3456" y2="766.282" gradientUnits="userSpaceOnUse">
<stop stop-color="white"/>
<stop offset="1" stop-color="white" stop-opacity="0"/>
</linearGradient>
<linearGradient id="paint15_linear_128_481" x1="107.351" y1="930.73" x2="66.8765" y2="826.136" gradientUnits="userSpaceOnUse">
<stop stop-color="white"/>
<stop offset="1" stop-color="white" stop-opacity="0"/>
</linearGradient>
</defs>
</svg>
